<?xml version="1.0" encoding="utf-8"?>
<!-- Generator: Adobe Illustrator 21.0.0, SVG Export Plug-In . SVG Version: 6.00 Build 0)  -->
<svg version="1.1" id="Warstwa_1" xmlns="http://www.w3.org/2000/svg" xmlns:xlink="http://www.w3.org/1999/xlink" x="0px" y="0px"
     viewBox="0 0 201.4 203.8" style="enable-background:new 0 0 201.4 203.8;" xml:space="preserve">
<style type="text/css">
	.st0{fill:#BD1622;}
	.st1{fill:#BD1622;stroke:#BD1622;stroke-width:1.4173;stroke-miterlimit:10;}
</style>
<title>01</title>
<g>
	<path class="st0" d="M93.7,203.7c-2.1,0-3.8-1.7-3.8-3.8v-30.2c-1.4-0.6-2.7-1.3-4-2v0.2c0,2.1-1.7,3.8-3.8,3.8s-3.8-1.7-3.8-3.8
		v-4.5c-1.4-0.9-2.7-1.8-4-2.7v18.7c3.5,1.5,5.8,4.9,5.8,8.8c0,5.3-4.3,9.6-9.6,9.6s-9.6-4.3-9.6-9.6c0-3.9,2.3-7.3,5.8-8.8v-24.8
		c-5.8-5.2-10.6-11.2-14.5-17.8h-13c-1.3,0-2.6,0.5-3.5,1.4l-17.3,17.3c0.5,1.1,0.7,2.3,0.7,3.6c0,2.6-1,5-2.8,6.8
		c-1.8,1.8-4.2,2.8-6.8,2.8c-2.6,0-5-1-6.8-2.8C1,164.3,0,161.9,0,159.4s1-5,2.8-6.8c1.8-1.8,4.2-2.8,6.8-2.8c1.2,0,2.4,0.2,3.6,0.7
		l17.3-17.3c2.4-2.4,5.5-3.7,8.8-3.7h2.2v0.1h7c-0.6-1.3-1.2-2.7-1.7-4.1h-11c-2.1,0-3.8-1.7-3.8-3.8c0-2.1,1.7-3.8,3.8-3.8h8.5
		c-0.4-1.3-0.7-2.7-1.1-4H3.8c-2.1,0-3.8-1.7-3.8-3.8c0-2.1,1.7-3.8,3.8-3.8h37.8c-0.2-1.3-0.4-2.7-0.6-4h-5.3
		c-2.1,0-3.8-1.7-3.8-3.8s1.7-3.8,3.8-3.8h4.4c-0.1-1.3-0.2-2.7-0.3-4H24.2c-1.5,3.5-4.9,5.8-8.8,5.8c-5.3,0-9.6-4.3-9.6-9.6
		s4.3-9.6,9.6-9.6c3.9,0,7.3,2.3,8.8,5.8h15.3c-0.2-7.6-0.1-15.1,0.1-22.3c0.1-4.3,0.2-8.4,0.2-12.4v-1.1h1.1
		c15.5,0,28.6-2.7,40-8.4c-0.1-1.2-0.6-2.3-1.4-3.1L62,18.5c-1.1,0.4-2.3,0.7-3.5,0.7c-2.6,0-5-1-6.8-2.8c-3.7-3.7-3.7-9.8,0-13.5
		c3.7-3.7,9.8-3.7,13.5,0c2.7,2.7,3.5,6.8,2.1,10.3l17.3,17.3c1.3,1.3,2.3,2.9,2.9,4.6c4.7-3,9.2-6.5,13.4-10.6l0.7-0.7l0.7,0.7
		c0.5,0.5,1,0.9,1.5,1.4V3.8c0-2.1,1.7-3.8,3.8-3.8c2.1,0,3.8,1.7,3.8,3.8v28.3c1.3,1,2.7,1.9,4.1,2.8c0.4-1.7,1.9-3,3.7-3
		c2.1,0,3.8,1.7,3.8,3.8v3.4c1.3,0.6,2.7,1.2,4,1.8V24.2c-3.5-1.5-5.8-4.9-5.8-8.8c0-5.3,4.3-9.6,9.6-9.6s9.6,4.3,9.6,9.6
		c0,3.9-2.3,7.3-5.8,8.8v19.4c8.5,2.5,17.7,3.7,28.1,3.7h1.1v1.1c0,4,0.1,8.1,0.2,12.4c0,1.8,0.1,3.6,0.1,5.5c0.6-0.2,1.1-0.6,1.5-1
		L183,47.9c-0.5-1.1-0.7-2.3-0.7-3.6c0-2.6,1-5,2.8-6.8c1.8-1.8,4.2-2.8,6.8-2.8c2.6,0,5,1,6.8,2.8c1.8,1.8,2.8,4.2,2.8,6.8
		s-1,5-2.8,6.8c-1.8,1.8-4.2,2.8-6.8,2.8c-1.2,0-2.4-0.2-3.6-0.7L171,70.6c-1.8,1.8-4.2,3.1-6.8,3.5c0,1.4,0,2.8,0,4.2h1.6
		c2.1,0,3.8,1.7,3.8,3.8s-1.7,3.8-3.8,3.8H164c-0.1,1.4-0.1,2.7-0.2,4h33.9c2.1,0,3.8,1.7,3.8,3.8s-1.7,3.8-3.8,3.8h-34.5
		c-0.1,1.4-0.3,2.7-0.5,4h3.1c2.1,0,3.8,1.7,3.8,3.8c0,2.1-1.7,3.8-3.8,3.8h-4.3c-0.3,1.4-0.6,2.7-0.9,4h16.7
		c1.5-3.5,4.9-5.8,8.8-5.8c5.3,0,9.6,4.3,9.6,9.6s-4.3,9.6-9.6,9.6c-3.9,0-7.3-2.3-8.8-5.8h-18.8c-6.4,20-18.7,34.9-37.6,45.4
		c0.2,0.7,0.6,1.3,1.2,1.9l17.3,17.3c3.5-1.4,7.6-0.6,10.3,2.1c3.7,3.7,3.7,9.8,0,13.5c-1.8,1.8-4.2,2.8-6.8,2.8c-2.6,0-5-1-6.8-2.8
		c-2.7-2.7-3.5-6.8-2.1-10.3l-17.3-17.3c-1.1-1.1-2-2.4-2.6-3.8c-3.8,1.8-7.9,3.4-12.1,4.9l-0.3,0.1l-0.3-0.1
		c-1.3-0.4-2.6-0.9-4-1.4v27C97.5,202,95.8,203.7,93.7,203.7z M83.7,164.3l1.6,0.8c1.9,1,4,2,6.1,3l0.6,0.3V200
		c0,0.9,0.7,1.6,1.7,1.6s1.7-0.7,1.7-1.6v-30.1l1.5,0.6c1.8,0.7,3.4,1.3,5,1.9c4.4-1.5,8.6-3.3,12.5-5.2l1.1-0.5l0.4,1.1
		c0.5,1.5,1.4,2.9,2.5,4l18.4,18.4l-0.3,0.7c-1.4,2.9-0.9,6.3,1.4,8.6c1.4,1.4,3.3,2.2,5.3,2.2s3.9-0.8,5.3-2.2
		c1.4-1.4,2.2-3.3,2.2-5.3s-0.8-3.9-2.2-5.3c-2.3-2.3-5.7-2.8-8.6-1.4l-0.7,0.3l-18.4-18.4c-1-1-1.7-2.3-1.9-3.7l-0.1-0.8l0.7-0.4
		c19-10.4,31.3-25.3,37.5-45.3l0.2-0.7h21.8l0.2,0.7c1,3,3.9,5.1,7.1,5.1c4.1,0,7.5-3.3,7.5-7.5s-3.3-7.5-7.5-7.5
		c-3.2,0-6,2-7.1,5.1l-0.2,0.7h-20.9l0.3-1.3c0.5-2,0.9-4,1.3-6.1l0.2-0.9h6.1c0.9,0,1.7-0.7,1.7-1.6s-0.7-1.7-1.7-1.7h-5.5l0.2-1.2
		c0.3-2,0.5-4,0.7-6.1l0.1-1h36.4c0.9,0,1.7-0.7,1.7-1.7s-0.7-1.7-1.7-1.7h-36.1l0.1-1.1c0.1-2,0.2-4,0.3-6.1l0-1h3.8
		c0.9,0,1.7-0.7,1.7-1.7s-0.7-1.7-1.7-1.7H162l0-1.1c0-2.1,0-4.1,0-6.2l0-1l1-0.1c2.5-0.2,4.7-1.2,6.4-3l18.4-18.4l0.7,0.3
		c1,0.5,2.1,0.8,3.3,0.8c2,0,3.9-0.8,5.3-2.2c1.4-1.4,2.2-3.3,2.2-5.3s-0.8-3.9-2.2-5.3c-1.4-1.4-3.3-2.2-5.3-2.2
		c-2,0-3.9,0.8-5.3,2.2c-1.4,1.4-2.2,3.3-2.2,5.3c0,1.2,0.3,2.3,0.8,3.3l0.3,0.7l-18.4,18.4c-1.1,1.1-2.4,1.7-3.9,2l-1.2,0.2l0-1.2
		c0-2.3-0.1-4.6-0.1-6.8c-0.1-4-0.1-7.7-0.2-11.4c-10.5-0.1-19.8-1.4-28.4-4l-0.8-0.2V22.7l0.7-0.2c3-1,5.1-3.9,5.1-7.1
		c0-4.1-3.3-7.5-7.5-7.5s-7.5,3.3-7.5,7.5c0,3.2,2,6,5.1,7.1l0.7,0.2V44l-1.4-0.6c-2.1-0.8-4.3-1.8-6.3-2.8l-0.6-0.3v-4.8
		c0-0.9-0.7-1.7-1.6-1.7s-1.7,0.7-1.7,1.7v3l-1.6-1c-2.2-1.3-4.3-2.7-6.3-4.2l-0.4-0.3V3.8c0-0.9-0.7-1.7-1.7-1.7s-1.7,0.7-1.7,1.7
		v26.8l-1.8-1.6c-0.9-0.8-1.8-1.6-2.6-2.4c-4.4,4.2-9.2,7.9-14.2,10.9l-1.3,0.8l-0.3-1.4c-0.4-1.9-1.4-3.6-2.8-5L64.8,13.6l0.3-0.7
		c1.4-2.9,0.9-6.3-1.4-8.6c-2.9-2.9-7.6-2.9-10.5,0c-2.9,2.9-2.9,7.6,0,10.5c1.4,1.4,3.3,2.2,5.3,2.2c1.1,0,2.3-0.3,3.3-0.8l0.7-0.3
		l18.4,18.4c1.3,1.3,2.1,3.1,2.1,5v1l-0.6,0.3c-11.6,5.9-24.9,8.8-40.5,8.9c0,3.7-0.1,7.4-0.2,11.4c-0.1,7.5-0.3,15.4,0,23.3l0,1.1
		h-19l-0.2-0.7c-1-3-3.9-5.1-7.1-5.1c-4.1,0-7.5,3.3-7.5,7.5s3.3,7.5,7.5,7.5c3.2,0,6-2,7.1-5.1l0.2-0.7h19.1l0.1,1
		c0.1,2.1,0.3,4.2,0.5,6.1l0.1,1.2h-6.7c-0.9,0-1.7,0.7-1.7,1.7s0.7,1.7,1.7,1.7h7.1l0.1,0.9c0.3,2.1,0.6,4.1,1,6.1l0.2,1.3H3.8
		c-0.9,0-1.7,0.7-1.7,1.7s0.7,1.7,1.7,1.7h41l0.2,0.8c0.5,2.1,1,4.1,1.6,6.1L47,120H35.7c-0.9,0-1.7,0.7-1.7,1.6s0.7,1.7,1.7,1.7
		h12.5l0.3,0.7c0.8,2.1,1.7,4.2,2.6,6.2l0.7,1.5H39.3l0-0.1c-2.8,0-5.4,1.1-7.3,3L13.6,153l-0.7-0.3c-1-0.5-2.1-0.8-3.3-0.8
		c-2,0-3.9,0.8-5.3,2.2c-1.4,1.4-2.2,3.3-2.2,5.3s0.8,3.9,2.2,5.3c1.4,1.4,3.3,2.2,5.3,2.2c2,0,3.9-0.8,5.3-2.2
		c1.4-1.4,2.2-3.3,2.2-5.3c0-1.2-0.3-2.3-0.8-3.3l-0.3-0.7L34.3,137c1.3-1.3,3.1-2.1,5-2.1h14.2l0.3,0.5c3.9,6.7,8.8,12.8,14.7,18.1
		l0.4,0.3v27.2l-0.7,0.2c-3,1-5.1,3.9-5.1,7.1c0,4.1,3.3,7.5,7.5,7.5s7.5-3.3,7.5-7.5c0-3.2-2-6-5.1-7.1l-0.7-0.2v-24.4l1.7,1.3
		c2,1.5,4,2.9,6.1,4.2l0.5,0.3v5.7c0,0.9,0.7,1.6,1.7,1.6s1.7-0.7,1.7-1.6V164.3z M143,198.3c-1.1,0-2.1-0.4-2.9-1.2
		c-0.8-0.8-1.2-1.8-1.2-2.9s0.4-2.2,1.2-2.9l0,0l0,0h0c0.8-0.8,1.8-1.2,2.9-1.2s2.2,0.4,2.9,1.2c1.6,1.6,1.6,4.3,0,5.9
		C145.1,197.9,144,198.3,143,198.3z M143,192.1c-0.5,0-1,0.2-1.4,0.6h0c-0.4,0.4-0.6,0.9-0.6,1.4s0.2,1,0.6,1.4
		c0.8,0.8,2.1,0.8,2.9,0s0.8-2.1,0-2.9C144,192.3,143.5,192.1,143,192.1z M70.5,192.5c-2.3,0-4.1-1.9-4.1-4.2s1.9-4.2,4.1-4.2
		s4.1,1.9,4.1,4.2S72.8,192.5,70.5,192.5z M70.5,186.3c-1.1,0-2,0.9-2,2s0.9,2,2,2c1.1,0,2-0.9,2-2S71.6,186.3,70.5,186.3z
		 M9.6,163.5c-1.1,0-2.2-0.4-2.9-1.2c-0.8-0.8-1.2-1.8-1.2-2.9s0.4-2.2,1.2-2.9c0.8-0.8,1.8-1.2,2.9-1.2s2.2,0.4,2.9,1.2
		c0.8,0.8,1.2,1.8,1.2,2.9s-0.4,2.2-1.2,2.9C11.7,163.1,10.7,163.5,9.6,163.5z M9.6,157.3c-0.5,0-1,0.2-1.4,0.6
		c-0.4,0.4-0.6,0.9-0.6,1.4s0.2,1,0.6,1.4c0.8,0.8,2.1,0.8,2.9,0c0.4-0.4,0.6-0.9,0.6-1.4s-0.2-1-0.6-1.4
		C10.6,157.5,10.1,157.3,9.6,157.3z M96.7,122.9L74.9,101l10.6-10.6l11.2,11.2L118,80.3l10.6,10.6L96.7,122.9z M77.9,101l18.8,18.8
		l28.9-28.9l-7.6-7.6l-21.3,21.3L85.5,93.4L77.9,101z M186.1,121c-2.3,0-4.1-1.9-4.1-4.2c0-1.1,0.4-2.1,1.2-2.9
		c0.8-0.8,1.8-1.2,2.9-1.2c2.3,0,4.1,1.9,4.1,4.2S188.4,121,186.1,121z M186.1,114.8c-0.5,0-1,0.2-1.4,0.6c-0.4,0.4-0.6,0.9-0.6,1.4
		c0,1.1,0.9,2,2,2c1.1,0,2-0.9,2-2S187.2,114.8,186.1,114.8z M15.4,91c-2.3,0-4.1-1.9-4.1-4.1s1.9-4.1,4.1-4.1s4.1,1.9,4.1,4.1
		c0,1.1-0.4,2.1-1.2,2.9C17.5,90.6,16.5,91,15.4,91z M15.4,84.8c-1.1,0-2,0.9-2,2c0,1.1,0.9,2,2,2c0.5,0,1-0.2,1.4-0.6
		s0.6-0.9,0.6-1.4C17.4,85.7,16.5,84.8,15.4,84.8z M191.9,48.5c-1.1,0-2.2-0.4-2.9-1.2c-0.8-0.8-1.2-1.8-1.2-2.9s0.4-2.2,1.2-2.9
		c0.8-0.8,1.8-1.2,2.9-1.2s2.2,0.4,2.9,1.2c0.8,0.8,1.2,1.8,1.2,2.9s-0.4,2.2-1.2,2.9C194,48.1,193,48.5,191.9,48.5z M191.9,42.3
		c-0.5,0-1,0.2-1.4,0.6c-0.4,0.4-0.6,0.9-0.6,1.4s0.2,1,0.6,1.4c0.8,0.8,2.1,0.8,2.9,0c0.4-0.4,0.6-0.9,0.6-1.4s-0.2-1-0.6-1.4
		C192.9,42.6,192.4,42.3,191.9,42.3z M131,19.5c-2.3,0-4.2-1.9-4.2-4.1s1.9-4.1,4.2-4.1s4.1,1.9,4.1,4.1S133.3,19.5,131,19.5z
		 M131,13.3c-1.1,0-2,0.9-2,2c0,1.1,0.9,2,2,2s2-0.9,2-2C133,14.3,132.1,13.3,131,13.3z M58.5,13.7c-1.1,0-2.1-0.4-2.9-1.2
		c-0.8-0.8-1.2-1.8-1.2-2.9c0-1.1,0.4-2.2,1.2-2.9c0.8-0.8,1.8-1.2,2.9-1.2c1.1,0,2.2,0.4,2.9,1.2c1.6,1.6,1.6,4.3,0,5.9l0,0
		C60.6,13.3,59.5,13.7,58.5,13.7z M58.5,7.5c-0.5,0-1,0.2-1.4,0.6c-0.4,0.4-0.6,0.9-0.6,1.4s0.2,1,0.6,1.4c0.8,0.8,2.1,0.8,2.9,0
		c0.8-0.8,0.8-2.1,0-2.9C59.5,7.8,59,7.5,58.5,7.5z"/>
</g>
<polygon class="st1" points="76.4,101 85.5,91.9 96.7,103.2 118,81.8 127.2,90.9 96.7,121.4 "/>
</svg>
