<?xml version="1.0" encoding="utf-8"?>
<!-- Generator: Adobe Illustrator 21.0.0, SVG Export Plug-In . SVG Version: 6.00 Build 0)  -->
<svg version="1.1" id="Warstwa_1" xmlns="http://www.w3.org/2000/svg" xmlns:xlink="http://www.w3.org/1999/xlink" x="0px" y="0px"
     viewBox="0 0 151.9 175.1" style="enable-background:new 0 0 151.9 175.1;" xml:space="preserve">
<style type="text/css">
	.st0{fill:#BD1622;}
</style>
<title>02</title>
<g>
	<circle class="st0" cx="75.9" cy="86.9" r="13"/>
	<path class="st0" d="M75.9,101c-7.7,0-14-6.3-14-14s6.3-14,14-14s14,6.3,14,14S83.7,101,75.9,101z M75.9,75
		C69.4,75,64,80.3,64,86.9s5.3,11.9,11.9,11.9c6.6,0,11.9-5.3,11.9-11.9S82.5,75,75.9,75z"/>
</g>
<g>
	<path class="st0" d="M75.9,175.1c-0.1,0-0.3,0-0.4,0l-0.3,0c-0.2,0-0.3,0-0.5,0c-0.4,0-0.7-0.1-1.1-0.2l-0.1,0
		c-1.7-0.3-3.2-1-4.7-1.9c-0.1-0.1-0.2-0.1-0.3-0.2l-0.2-0.2c-0.2-0.1-0.3-0.2-0.5-0.4c-0.1-0.1-0.2-0.2-0.3-0.3l-0.2-0.2
		c-0.1-0.1-0.2-0.2-0.3-0.3c-0.1-0.1-0.2-0.2-0.3-0.3l-0.2-0.2c-0.1-0.1-0.2-0.3-0.4-0.4c-0.1-0.1-0.1-0.1-0.2-0.2l-0.1-0.1
		c-0.2-0.2-0.3-0.4-0.5-0.7l-0.1-0.1c-0.9-1.4-1.5-2.8-1.8-4.3c-0.2-0.8-0.2-1.6-0.3-2.4l0-0.1l0-0.1c0-0.9,0.1-1.7,0.3-2.6
		l-42.8-25.3c-1.5,1.3-3.2,2.2-5.1,2.7C9,139,2.1,135,0.4,128.3C0.1,127,0,125.8,0,124.5c0.2-5.2,3.7-9.9,8.6-11.5V62.1
		c-1.9-0.6-3.6-1.7-5-3.1c-2.4-2.4-3.7-5.6-3.7-9c0-3.4,1.3-6.6,3.7-9c4.7-4.7,12.2-4.9,17.2-0.5l42.8-25.3
		c-0.2-0.9-0.3-1.8-0.3-2.7c0-0.4,0-0.8,0.1-1.1c0-0.1,0-0.2,0-0.4c0-0.3,0.1-0.5,0.1-0.7c0-0.2,0.1-0.3,0.1-0.4
		c0.1-0.3,0.2-0.6,0.2-1c0.4-1.2,0.9-2.4,1.6-3.4c0.1-0.1,0.2-0.3,0.3-0.4L66,4.9c0.1-0.1,0.2-0.2,0.3-0.3c0.1-0.1,0.2-0.2,0.3-0.4
		L66.8,4c0.1-0.1,0.2-0.2,0.3-0.3c0.1-0.1,0.2-0.2,0.3-0.2l0.2-0.2C67.7,3.1,67.8,3,68,2.8c0.1,0,0.1-0.1,0.2-0.1
		c0.3-0.2,0.6-0.4,0.8-0.6c1.7-1.1,3.6-1.8,5.5-2l0.1,0c0.1,0,0.2,0,0.3,0l0.1,0c0.4,0,0.6,0,0.9,0c0.1,0,0.3,0,0.4,0l0.3,0
		c0.2,0,0.3,0,0.5,0c0.4,0,0.7,0.1,1.1,0.2l0.2,0c1.7,0.3,3.2,1,4.6,1.9c0.1,0.1,0.2,0.1,0.3,0.2l0.2,0.2c0.2,0.1,0.3,0.2,0.5,0.4
		c0.1,0.1,0.2,0.2,0.3,0.3l0.2,0.2c0.1,0.1,0.2,0.2,0.3,0.3C85,3.8,85,3.9,85.1,4l0.2,0.2c0.1,0.1,0.2,0.3,0.4,0.4
		c0.1,0.1,0.1,0.1,0.2,0.2l0.1,0.1c0.2,0.2,0.3,0.5,0.5,0.7l0.1,0.1c0.9,1.4,1.5,2.8,1.8,4.3c0.2,0.8,0.3,1.7,0.3,2.5l0,0.1
		c0,0.9-0.1,1.7-0.3,2.6L131,40.6c1.5-1.3,3.2-2.2,5.1-2.7c3.2-0.8,6.6-0.4,9.5,1.3c2.9,1.7,4.9,4.4,5.8,7.7
		c0.3,1.2,0.4,2.5,0.4,3.8c-0.2,5.2-3.7,9.9-8.6,11.5V113c1.9,0.6,3.6,1.7,5,3.1v0c2.4,2.4,3.7,5.6,3.7,9c0,3.4-1.3,6.6-3.7,9
		c-2.4,2.4-5.5,3.7-8.9,3.7c0,0,0,0,0,0c-3.1,0-6-1.1-8.3-3.1l-42.8,25.3c0.2,0.9,0.3,1.8,0.3,2.7l0,0.1c0,0.4,0,0.7-0.1,1.1
		c0,0.1,0,0.3,0,0.4c0,0.2-0.1,0.5-0.1,0.7c0,0.2-0.1,0.3-0.1,0.4c-0.1,0.3-0.1,0.6-0.2,0.9c-0.4,1.2-0.9,2.4-1.6,3.4
		c-0.1,0.1-0.2,0.3-0.3,0.4l-0.2,0.2c-0.1,0.1-0.2,0.2-0.2,0.3c-0.1,0.1-0.2,0.3-0.3,0.4l-0.2,0.2c-0.1,0.1-0.2,0.2-0.3,0.3
		c-0.1,0.1-0.2,0.2-0.3,0.2l-0.2,0.2c-0.1,0.1-0.3,0.3-0.4,0.4c-0.1,0-0.1,0.1-0.2,0.1c-0.3,0.2-0.5,0.4-0.8,0.6l-0.1,0.1
		c-1.6,1.1-3.5,1.8-5.4,2c0,0-0.1,0-0.1,0c-0.1,0-0.2,0-0.3,0l-0.1,0C76.5,175.1,76.2,175.1,75.9,175.1z M65.5,162.6
		c0,0.7,0.1,1.4,0.2,2.1c0.3,1.3,0.8,2.5,1.5,3.6l0.1,0.1c0.1,0.2,0.3,0.4,0.4,0.6l0.2,0.2c0.1,0.1,0.2,0.2,0.3,0.3l0.2,0.2
		c0.1,0.1,0.1,0.1,0.2,0.2c0.1,0.1,0.2,0.1,0.2,0.2l0.3,0.3c0.1,0.1,0.2,0.1,0.2,0.2c0.1,0.1,0.2,0.2,0.4,0.3l0.3,0.2
		c0.1,0,0.1,0.1,0.2,0.1c1.2,0.8,2.5,1.3,3.9,1.6l0.1,0c0.3,0.1,0.6,0.1,0.9,0.1c0.1,0,0.2,0,0.4,0l0.4,0c0.1,0,0.2,0,0.2,0
		c0.2,0,0.4,0,0.6,0l0.3,0c0.1,0,0.1,0,0.2,0l0.1,0c1.6-0.2,3.2-0.8,4.6-1.7c0.2-0.2,0.4-0.3,0.6-0.5l0.1-0.1
		c0.2-0.1,0.3-0.2,0.4-0.4l0.2-0.2c0.1-0.1,0.1-0.1,0.2-0.2c0.1-0.1,0.1-0.1,0.2-0.2l0.2-0.3c0.1-0.1,0.2-0.2,0.3-0.3
		c0.1-0.1,0.1-0.1,0.2-0.2l0.2-0.3c0.1-0.1,0.1-0.2,0.2-0.3c0.6-0.9,1-1.8,1.4-2.8c0.1-0.3,0.1-0.5,0.2-0.8c0-0.1,0-0.2,0-0.2l0-0.1
		c0-0.2,0.1-0.4,0.1-0.6c0-0.1,0-0.2,0-0.3c0-0.3,0-0.6,0-0.9l0-0.1c0-1-0.1-1.9-0.4-2.8l-0.2-0.8l45.6-26.9l0.6,0.6
		c2,2,4.6,3.1,7.4,3.1c0,0,0,0,0,0c2.8,0,5.4-1.1,7.4-3c2-2,3.1-4.6,3.1-7.5c0-2.8-1.1-5.5-3-7.5c-1.3-1.3-3-2.3-4.8-2.7l-0.8-0.2
		V60.5l0.8-0.2c4.5-1.2,7.7-5.2,7.8-9.8c0.1-1.1-0.1-2.1-0.3-3.1c-0.7-2.7-2.4-5-4.8-6.4c-2.4-1.4-5.2-1.8-7.9-1.1
		c-1.8,0.5-3.5,1.4-4.8,2.7l-0.6,0.6L85.8,16.3l0.2-0.8c0.3-0.9,0.4-1.9,0.4-2.8c0-0.8-0.1-1.5-0.2-2.2c-0.3-1.3-0.8-2.5-1.5-3.6
		l-0.1-0.1c-0.1-0.2-0.3-0.4-0.4-0.6L84,6c-0.1-0.1-0.2-0.2-0.3-0.3l-0.2-0.3c-0.1-0.1-0.1-0.1-0.2-0.2c-0.1-0.1-0.2-0.1-0.2-0.2
		l-0.3-0.3c-0.1-0.1-0.2-0.1-0.2-0.2c-0.1-0.1-0.3-0.2-0.4-0.3L82,4c-0.1,0-0.1-0.1-0.2-0.1c-1.2-0.8-2.5-1.3-3.9-1.6l-0.1,0
		c-0.3-0.1-0.6-0.1-0.9-0.1c-0.1,0-0.2,0-0.4,0l-0.4,0c-0.1,0-0.2,0-0.2,0c-0.2,0-0.4,0-0.6,0l-0.3,0c-0.1,0-0.1,0-0.2,0l-0.1,0
		c-1.6,0.2-3.2,0.8-4.6,1.7c-0.2,0.2-0.4,0.3-0.6,0.5l-0.1,0.1c-0.2,0.2-0.3,0.3-0.4,0.4L68.7,5c-0.1,0.1-0.1,0.1-0.2,0.2
		c-0.1,0.1-0.1,0.1-0.2,0.2l-0.2,0.3C68,5.7,68,5.8,67.9,5.9c-0.1,0.1-0.1,0.2-0.2,0.2l-0.2,0.3c-0.1,0.1-0.1,0.2-0.2,0.3
		c-0.6,0.9-1,1.8-1.4,2.9c-0.1,0.3-0.1,0.5-0.2,0.8l-0.1,0.4c0,0.2-0.1,0.4-0.1,0.6l0,0.3c0,0.3,0,0.6,0,0.9c0,1,0.1,2,0.4,2.9
		l0.2,0.8L20.5,43.2L20,42.6c-2-2-4.6-3.1-7.4-3.1c0,0,0,0,0,0c-2.8,0-5.4,1.1-7.4,3c-2,2-3.1,4.6-3.1,7.5c0,2.8,1.1,5.5,3,7.5
		c1.3,1.3,3,2.3,4.8,2.7l0.8,0.2v54.1l-0.8,0.2c-4.5,1.2-7.7,5.2-7.8,9.8c-0.1,1.1,0.1,2.1,0.3,3.1c1.4,5.6,7.1,8.9,12.7,7.5
		c1.8-0.5,3.5-1.4,4.8-2.7l0.6-0.6l45.6,26.9l-0.2,0.8C65.6,160.6,65.5,161.5,65.5,162.6L65.5,162.6z M75.9,169.2
		c-3.7,0-6.8-3-6.8-6.7c0.1-3.7,3.1-6.7,6.8-6.7c3.7,0,6.8,3,6.8,6.7C82.7,166.2,79.6,169.2,75.9,169.2z M75.9,157.9
		c-2.5,0-4.7,2.1-4.7,4.6c0,2.5,2.1,4.6,4.7,4.6c2.5,0,4.7-2.1,4.7-4.6C80.6,159.9,78.5,157.9,75.9,157.9z M83.9,155.5l-0.6-0.6
		c-1.3-1.3-3-2.2-4.8-2.7l-0.8-0.2v-20l8.2,4.8l-10-24.8l-10.2,24.7l8.3-4.8v20l-0.8,0.2c-1.8,0.5-3.4,1.4-4.8,2.7l-0.6,0.6
		l-45.6-26.9l0.2-0.8c0.3-0.9,0.4-1.9,0.4-2.8c0-1-0.1-1.9-0.3-2.8l-0.2-0.8l15.3-9l0.1,9.5L54,100.6l-26.4,3.9l8.4,4.7l-15.2,9
		l-0.6-0.6c-1.2-1.2-2.7-2.1-4.3-2.6c-0.2-0.1-0.4-0.1-0.6-0.2l-0.8-0.2V60.5l0.8-0.2c1.8-0.5,3.5-1.4,4.8-2.8l0.6-0.6l15.2,9
		l-8.4,4.7l26.4,3.9L37.8,53.2l-0.1,9.6l-15.3-9l0.2-0.8c0.3-0.9,0.4-1.8,0.4-2.7c0-1-0.1-2-0.4-2.9l-0.2-0.8L68,19.6l0.6,0.6
		c1.3,1.3,3,2.2,4.8,2.7l0.8,0.2v20l-8.2-4.8l10,24.8l10.2-24.7l-8.3,4.8v-20l0.8-0.2c1.8-0.5,3.4-1.4,4.8-2.7l0.6-0.6l45.6,26.9
		l-0.2,0.8c-0.3,0.9-0.4,1.9-0.4,2.8c0,1,0.1,1.9,0.3,2.8l0.2,0.8l-15.3,9l-0.1-9.5L97.9,74.5l26.4-3.9l-8.4-4.7l15.2-9l0.6,0.6
		c1.2,1.2,2.7,2.1,4.3,2.6c0.2,0.1,0.4,0.1,0.6,0.2l0.8,0.2v54.1l-0.8,0.2c-1.8,0.5-3.5,1.4-4.8,2.8l-0.6,0.6l-15.2-9l8.4-4.7
		L98,100.6l16.2,21.3l0.1-9.6l15.3,9l-0.2,0.8c-0.3,0.9-0.4,1.8-0.4,2.7c0,1,0.1,2,0.4,2.9l0.2,0.8L83.9,155.5z M24.9,127.6
		l42.8,25.3c1.3-1.1,2.7-1.9,4.3-2.4v-14.7l-10.6,6.1L76,106.5l14.3,35.4l-10.4-6.1v14.6c1.6,0.5,3.1,1.3,4.3,2.4l42.8-25.3
		c-0.2-0.9-0.3-1.7-0.3-2.6c0-0.9,0.1-1.7,0.3-2.6l-10.7-6.3l-0.1,12.1L93.1,97.8l37.8,5.5l-10.6,5.9l10.7,6.3
		c1.3-1.2,2.8-2,4.4-2.6V62.1c-1.7-0.5-3.2-1.4-4.5-2.5l-10.7,6.3l10.6,6l-37.8,5.5L116.2,47l0.1,12.1l10.7-6.3
		c-0.2-0.9-0.2-1.7-0.2-2.6c0-0.9,0.1-1.8,0.3-2.6L84.2,22.2c-1.3,1.1-2.7,1.9-4.3,2.4v14.7l10.6-6.1L75.9,68.6L61.6,33.2L72,39.3
		V24.7c-1.6-0.5-3.1-1.3-4.3-2.4L24.9,47.5c0.2,0.9,0.3,1.7,0.3,2.6c0,0.9-0.1,1.7-0.3,2.6l10.7,6.3l0.1-12.1l23.1,30.4L21,71.8
		l10.6-5.9l-10.7-6.3c-1.3,1.2-2.8,2-4.4,2.6V113c1.7,0.5,3.2,1.4,4.5,2.5l10.6-6.3l-10.6-6l37.8-5.5l-23.1,30.4l-0.1-12.1
		l-10.7,6.3c0.2,0.9,0.2,1.7,0.2,2.6C25.2,125.8,25.1,126.7,24.9,127.6z M139.3,131.7c-3.7,0-6.8-3-6.8-6.7c0.1-3.7,3.1-6.7,6.8-6.7
		c3.7,0,6.8,3,6.8,6.7C146.1,128.7,143,131.7,139.3,131.7z M139.3,120.4c-2.5,0-4.7,2.1-4.7,4.6c0,2.5,2.1,4.6,4.7,4.6
		c2.5,0,4.7-2.1,4.7-4.6C144,122.5,141.9,120.4,139.3,120.4z M12.6,131.7c-3.7,0-6.8-3-6.8-6.7c0.1-3.7,3.1-6.7,6.8-6.7
		c3.7,0,6.8,3,6.8,6.7C19.3,128.7,16.3,131.7,12.6,131.7z M12.6,120.4c-2.5,0-4.7,2.1-4.7,4.6c0,2.5,2.1,4.6,4.7,4.6
		c2.5,0,4.7-2.1,4.7-4.6C17.2,122.5,15.1,120.4,12.6,120.4z M139.3,56.9c-3.7,0-6.8-3-6.8-6.7c0.1-3.7,3.1-6.7,6.8-6.7
		c3.7,0,6.8,3,6.8,6.7C146.1,53.8,143,56.9,139.3,56.9z M139.3,45.5c-2.5,0-4.7,2.1-4.7,4.6c0,2.5,2.1,4.6,4.7,4.6
		c2.5,0,4.7-2.1,4.7-4.6C144,47.6,141.9,45.5,139.3,45.5z M12.6,56.9c-3.7,0-6.8-3-6.8-6.7c0.1-3.7,3.1-6.7,6.8-6.7
		c3.7,0,6.8,3,6.8,6.7C19.3,53.8,16.3,56.9,12.6,56.9z M12.6,45.5c-2.5,0-4.7,2.1-4.7,4.6c0,2.5,2.1,4.6,4.7,4.6
		c2.5,0,4.7-2.1,4.7-4.6C17.2,47.6,15.1,45.5,12.6,45.5z M75.9,19.4c-3.7,0-6.8-3-6.8-6.7c0.1-3.7,3.1-6.7,6.8-6.7
		c3.7,0,6.8,3,6.8,6.7C82.7,16.4,79.6,19.4,75.9,19.4z M75.9,8.1c-2.5,0-4.7,2.1-4.7,4.6c0,2.5,2.1,4.6,4.7,4.6
		c2.5,0,4.7-2.1,4.7-4.6C80.6,10.1,78.5,8.1,75.9,8.1z"/>
</g>
</svg>
