<svg xmlns="http://www.w3.org/2000/svg" viewBox="0 0 153.92 198.61">
    <defs>
        <style>.cls-1{fill:none;}.cls-1,.cls-2{stroke:#bd1622;stroke-miterlimit:10;stroke-width:2.13px;}.cls-2{fill:#bd1622;}</style>
    </defs>
    <title>05</title>
    <g id="Warstwa_2" data-name="Warstwa 2">
        <g id="Capa_1" data-name="Capa 1">
            <path class="cls-1" d="M88.83,120v-14a10,10,0,0,0-19.94,0v12.6a61.24,61.24,0,0,1-15.75,41l-14,15.55a3.18,3.18,0,0,0,4.73,4.26l14-15.55a67.62,67.62,0,0,0,17.37-45.28v-12.6a3.61,3.61,0,0,1,7.21,0v14A74.73,74.73,0,0,1,63,170.42l-13.65,15a3.18,3.18,0,0,0,4.71,4.28l13.65-15A81.17,81.17,0,0,0,88.83,120Z"/>
            <path class="cls-2" d="M102.41,106.09a23.55,23.55,0,1,0-47.1,0v12.6a47.67,47.67,0,0,1-12.26,31.93L33.1,161.68a3.18,3.18,0,0,0,4.73,4.26l10-11.06a54,54,0,0,0,13.89-36.19v-12.6a17.19,17.19,0,0,1,34.38,0v14a88.3,88.3,0,0,1-23,59.52L61.52,192.22a3.18,3.18,0,0,0,2.36,5.32,3.16,3.16,0,0,0,2.35-1l11.51-12.66A94.64,94.64,0,0,0,102.41,120Z"/>
            <path class="cls-1" d="M116,106.09a37.13,37.13,0,0,0-74.26,0v12.6A34.15,34.15,0,0,1,33,141.54l-9,10a3.18,3.18,0,1,0,4.73,4.26l9-9.95a40.48,40.48,0,0,0,10.4-27.11v-12.6a30.77,30.77,0,0,1,61.53,0v14a101.82,101.82,0,0,1-26.54,68.65L79.9,192.2a3.18,3.18,0,0,0,4.71,4.28L87.79,193A108.16,108.16,0,0,0,116,120v-14Z"/>
            <path class="cls-1" d="M28.15,106.09a3.18,3.18,0,1,0,6.36,0,44.42,44.42,0,0,1,38-43.89,3.18,3.18,0,1,0-.91-6.3,50.78,50.78,0,0,0-43.46,50.19Z"/>
            <path class="cls-1" d="M34.51,118.69a3.18,3.18,0,1,0-6.36,0,20.52,20.52,0,0,1-5.29,13.76l-8,8.86a3.19,3.19,0,0,0,2.37,5.31,3.21,3.21,0,0,0,2.37-1.05l8-8.86A26.9,26.9,0,0,0,34.51,118.69Z"/>
            <path class="cls-1" d="M123.32,147.1a3.17,3.17,0,0,0-3.88,2.27,116.9,116.9,0,0,1-4.35,13.27A3.18,3.18,0,0,0,121,165a122.47,122.47,0,0,0,4.59-14A3.18,3.18,0,0,0,123.32,147.1Z"/>
            <path class="cls-1" d="M112.73,68.38a3.18,3.18,0,1,0-4.26,4.73,44.44,44.44,0,0,1,14.73,33v14a116.48,116.48,0,0,1-1.08,15.85,3.18,3.18,0,0,0,2.72,3.59,3.17,3.17,0,0,0,3.58-2.72A122.85,122.85,0,0,0,129.57,120v-14A50.81,50.81,0,0,0,112.73,68.38Z"/>
            <path class="cls-1" d="M97.85,66a3.18,3.18,0,0,0,2.74-5.74A50.07,50.07,0,0,0,86.1,55.9a3.18,3.18,0,0,0-.91,6.3A44.12,44.12,0,0,1,97.85,66Z"/>
            <path class="cls-2" d="M78.86,41.8c-1.19,0-2.4,0-3.58.1a3.18,3.18,0,1,0,.35,6.36c1.07-.06,2.15-.09,3.23-.09a58,58,0,0,1,57.92,57.92v14a3.19,3.19,0,0,0,6.37,0v-14A64.36,64.36,0,0,0,78.86,41.8Z"/>
            <path class="cls-1" d="M44.06,59.07a3.13,3.13,0,0,0,1.81-.57,57.63,57.63,0,0,1,17.29-8.17,3.18,3.18,0,1,0-1.73-6.13,64,64,0,0,0-19.19,9.07,3.18,3.18,0,0,0,1.82,5.8Z"/>
            <path class="cls-1" d="M20.93,118.69v-12.6a57.68,57.68,0,0,1,15.79-39.7A3.18,3.18,0,1,0,32.09,62a64,64,0,0,0-17.52,44.07v12.6a7,7,0,0,1-1.8,4.68l-3.93,4.36A3.19,3.19,0,0,0,13.58,132l3.92-4.36A13.37,13.37,0,0,0,20.93,118.69Z"/>
            <path class="cls-1" d="M152.69,81.31A77.45,77.45,0,0,0,136.2,53.46a3.18,3.18,0,0,0-4.69,4.3,71.13,71.13,0,0,1,15.14,25.58,3.19,3.19,0,0,0,3,2.17,3,3,0,0,0,1-.17A3.18,3.18,0,0,0,152.69,81.31Z"/>
            <path class="cls-2" d="M104,32.39a3.18,3.18,0,0,0-2.06,6,71.12,71.12,0,0,1,19.58,10.34,3.18,3.18,0,1,0,3.81-5.1A77.9,77.9,0,0,0,104,32.39Z"/>
            <path class="cls-2" d="M29.4,54.49a71.19,71.19,0,0,1,49.46-19.9,73.35,73.35,0,0,1,10.27.73A3.18,3.18,0,0,0,90,29a78.68,78.68,0,0,0-11.18-.8A78,78,0,0,0,1.07,102.56a3.18,3.18,0,0,0,3,3.32h.15a3.19,3.19,0,0,0,3.18-3A71.16,71.16,0,0,1,29.4,54.49Z"/>
            <path class="cls-2" d="M78.86,14.64a92,92,0,0,0-21.08,2.45,3.18,3.18,0,1,0,1.46,6.2A85.42,85.42,0,0,1,78.86,21,84.37,84.37,0,0,1,140.2,47.19a3.18,3.18,0,1,0,4.59-4.41A91.17,91.17,0,0,0,78.86,14.64Z"/>
            <path class="cls-2" d="M7.37,54.28a3.17,3.17,0,0,0,4.46-.54A85.66,85.66,0,0,1,46.37,27.45a3.18,3.18,0,0,0-2.44-5.88A92.16,92.16,0,0,0,6.82,49.81,3.18,3.18,0,0,0,7.37,54.28Z"/>
            <path class="cls-2" d="M34.73,17.5a3.27,3.27,0,0,0,1.38-.32A97.52,97.52,0,0,1,78.86,7.43a98.71,98.71,0,0,1,23.08,2.73A3.18,3.18,0,1,0,103.43,4a105,105,0,0,0-70.09,7.48,3.18,3.18,0,0,0,1.39,6.05Z"/>
            <path class="cls-2" d="M115.25,14.38a98,98,0,0,1,9.65,4.47,3.19,3.19,0,0,0,3-5.63A105.06,105.06,0,0,0,117.6,8.47a3.18,3.18,0,1,0-2.35,5.91Z"/>
        </g>
    </g>
</svg>