<svg xmlns="http://www.w3.org/2000/svg" viewBox="0 0 186.12 155.46">
    <defs>
        <style>.cls-1{fill:none;stroke:#bd1622;stroke-miterlimit:10;stroke-width:2.13px;}.cls-2{fill:#bd1622;}</style>
    </defs>
    <title>04</title>
    <g id="Warstwa_2" data-name="Warstwa 2">
        <g id="Capa_1" data-name="Capa 1">
            <path class="cls-1" d="M184.59,76.09a107.59,107.59,0,0,0-88.46-50.4V1.06H90V25.69A107.59,107.59,0,0,0,1.53,76.09a3.11,3.11,0,0,0,0,3.27A107.55,107.55,0,0,0,90,129.76V154.4h6.13V129.76a107.54,107.54,0,0,0,88.46-50.4A3.07,3.07,0,0,0,184.59,76.09ZM7.78,77.73A101.46,101.46,0,0,1,60.61,37,52,52,0,0,0,41.09,74.66H16.4V80.8H41.09a52,52,0,0,0,19.52,37.66A101.46,101.46,0,0,1,7.78,77.73ZM90,105.33v18.24A46,46,0,0,1,47.22,80.8H65.46V74.66H47.22A46,46,0,0,1,90,31.89V50.13h6.13V31.89a46,46,0,0,1,42.78,42.77H120.66V80.8h18.25a46,46,0,0,1-42.78,42.77V105.33Zm88.35-27.6a101.49,101.49,0,0,1-52.84,40.73A52,52,0,0,0,145,80.8h24.69V74.66H145A52,52,0,0,0,125.51,37a101.49,101.49,0,0,1,52.84,40.73Z"/>
            <path class="cls-2" d="M93.06,56.26a21.47,21.47,0,1,0,21.47,21.47A21.46,21.46,0,0,0,93.06,56.26Zm0,36.8A15.33,15.33,0,1,1,108.4,77.73,15.33,15.33,0,0,1,93.06,93.06Z"/>
            <path class="cls-2" d="M19.46,1.06A3.07,3.07,0,0,0,16.4,4.13V28.66h6.13V7.2H44V1.06Z"/>
            <path class="cls-2" d="M166.66,1.06H142.13V7.2H163.6V28.66h6.13V4.13A3.07,3.07,0,0,0,166.66,1.06Z"/>
            <path class="cls-2" d="M163.6,126.8v21.46H142.13v6.14h24.53a3.07,3.07,0,0,0,3.07-3.07V126.8Z"/>
            <path class="cls-2" d="M22.53,148.26V126.8H16.4v24.53a3.07,3.07,0,0,0,3.06,3.07H44v-6.14Z"/>
        </g>
    </g>
</svg>