<svg xmlns="http://www.w3.org/2000/svg" viewBox="0 0 120.71 160.38">
    <defs>
        <style>.cls-1,.cls-3{fill:#bd1622;}.cls-1,.cls-2,.cls-3{stroke:#bd1622;stroke-miterlimit:10;}.cls-1{stroke-width:1.42px;}.cls-2{fill:none;}.cls-2,.cls-3{stroke-width:2.13px;}</style>
    </defs>
    <title>03</title>
    <g id="Warstwa_2" data-name="Warstwa 2">
        <g id="Capa_1" data-name="Capa 1">
            <polygon class="cls-1" points="25.57 126.91 30.12 122.36 35.74 127.97 46.41 117.3 50.96 121.85 35.74 137.08 25.57 126.91"/>
            <path class="cls-2" d="M106.64,62.66A2.32,2.32,0,0,0,104.32,65v80H16.39V116.56a2.32,2.32,0,0,0-4.64,0v30.78a2.32,2.32,0,0,0,2.32,2.32h92.57a2.32,2.32,0,0,0,2.32-2.32V65A2.32,2.32,0,0,0,106.64,62.66Z"/>
            <path class="cls-2" d="M117.33,15.47H95.86V12.11a2.32,2.32,0,0,0-2.32-2.32H73.18a13.79,13.79,0,0,0-25.65,0H27.17a2.32,2.32,0,0,0-2.32,2.32v3.36H3.38a2.32,2.32,0,0,0-2.32,2.32V157a2.32,2.32,0,0,0,2.32,2.32h114a2.32,2.32,0,0,0,2.32-2.32V17.79A2.32,2.32,0,0,0,117.33,15.47Zm-87.84-1H49.22a2.31,2.31,0,0,0,2.25-1.77,9.15,9.15,0,0,1,17.77,0,2.31,2.31,0,0,0,2.25,1.77H91.22V29.06H29.49ZM115,154.67H5.7V20.11H24.85v4.13H14.07a2.32,2.32,0,0,0-2.32,2.32v82.27a2.32,2.32,0,1,0,4.64,0V28.88h8.46v2.5a2.32,2.32,0,0,0,2.32,2.32H93.54a2.32,2.32,0,0,0,2.32-2.32v-2.5h8.46V57.25a2.32,2.32,0,1,0,4.64,0V26.56a2.32,2.32,0,0,0-2.32-2.32H95.86V20.11H115V154.67Z"/>
            <path class="cls-3" d="M79.31,48.91a2.32,2.32,0,0,0-2.61,3.84A33.18,33.18,0,0,1,91.14,77.87H59.07l-15.29-24L43.23,53,42,51.12A33.27,33.27,0,0,1,69.93,49.2a2.32,2.32,0,1,0,1.66-4.33,37.87,37.87,0,0,0-34.05,3.54,2.33,2.33,0,0,0-.7,3.2l1.29,2a33.18,33.18,0,0,0-.4,52.8,2.31,2.31,0,0,0,1.42.49l.3,0A2.31,2.31,0,0,0,41,106l1.79-2.34a27.76,27.76,0,0,0,15.27,4.52A28,28,0,0,0,86,82.51h7.58a2.34,2.34,0,0,0,2.32-2.34A37.82,37.82,0,0,0,79.31,48.91ZM40.45,99.07h0l-1.67,2.19a28.56,28.56,0,0,1,1.85-43.71L55,80.06Zm17.6,4.48A23.09,23.09,0,0,1,45.61,100L59,82.5H81.31A23.41,23.41,0,0,1,58.05,103.55Z"/>
            <path class="cls-3" d="M94.41,122.53H57.64a1.83,1.83,0,0,0,0,3.58H94.41a1.83,1.83,0,0,0,0-3.58Z"/>
            <path class="cls-3" d="M83,131.09H57.64a1.84,1.84,0,0,0,0,3.59H83a1.84,1.84,0,0,0,0-3.59Z"/>
        </g>
    </g>
</svg>