<?xml version="1.0" encoding="UTF-8"?>
<svg id="Layer_1" data-name="Layer 1" xmlns="http://www.w3.org/2000/svg" viewBox="0 0 400 400">
  <defs>
    <style>
      .cls-1 {
        fill: #9a1a32;
      }
    </style>
  </defs>
  <path class="cls-1" d="M165.82422,216.42677c-.27857-2.07853-1.35474-3.92136-3.0309-5.19276-1.67378-1.26426-3.71898-1.79044-5.76894-1.50473-2.06425,.27619-3.89993,1.34045-5.16419,2.99756-1.2714,1.66425-1.81663,3.72374-1.53569,5.80227,6.25703,46.1539-10.39742,92.7816-44.54678,124.72862-1.52378,1.42616-2.40234,3.36422-2.47138,5.45228-.06667,2.08806,.68094,4.0785,2.10948,5.60466,1.46902,1.57378,3.54993,2.47614,5.7118,2.47614,1.99282,0,3.8904-.74999,5.34276-2.11187,37.83739-35.39934,56.28704-87.0817,49.35384-138.25217Z"/>
  <path class="cls-1" d="M78.94728,223.31235l-.00238-.01429c-.07857-.36904-.17857-.71903-.22857-.79522-1.18569-6.09274-1.91901-12.33072-2.18091-18.53537-.16666-4.28325-3.7785-7.61652-8.1308-7.49748-2.08806,.08095-4.01897,.97379-5.43561,2.50948-1.41664,1.53807-2.14996,3.53565-2.06187,5.62609,.30238,7.26653,1.19045,14.60687,2.6309,21.79483,.07143,.37142,.17619,.73332,.22619,.80475,3.78564,20.24724-3.64041,41.10637-19.38059,54.43946-3.28803,2.79519-3.69755,7.74033-.90951,11.02598,1.49283,1.75949,3.66898,2.769,5.97132,2.769,1.84997,0,3.64517-.66189,5.05229-1.86187,20.34486-17.23063,29.71135-44.15393,24.44954-70.26535Z"/>
  <path class="cls-1" d="M115.8323,273.84236c-.84284-1.91187-2.37853-3.38089-4.32373-4.13802-1.9452-.75475-4.07373-.70713-5.98798,.13095-1.91425,.84284-3.38565,2.38091-4.1404,4.32849-6.30941,16.25208-16.76873,30.67562-30.24229,41.71112-1.61664,1.32378-2.62138,3.19756-2.82852,5.27609-.20714,2.08091,.40714,4.11659,1.7333,5.73561,1.49283,1.81663,3.69993,2.85947,6.05227,2.85947,1.79997,0,3.56184-.62856,4.95943-1.76901,15.54733-12.74024,27.62091-29.38993,34.91363-48.15148,.75475-1.9452,.70713-4.06897-.13571-5.98322Z"/>
  <path class="cls-1" d="M54.05727,103.00508c1.35236,.9857,2.94518,1.50711,4.60706,1.50711,2.48805,0,4.84991-1.20236,6.31893-3.21423,24.49478-33.5589,60.42744-56.56323,101.18144-64.77974,36.16123-7.29748,72.72959-2.57852,105.75992,13.63308,1.87139,.91903,3.99278,1.06188,5.97846,.38571,1.97853-.67618,3.57612-2.08329,4.49039-3.95945,.92379-1.87377,1.0595-3.99516,.38333-5.9737-.6738-1.97853-2.08091-3.57374-3.95707-4.49277-36.13742-17.74252-76.1581-22.90909-115.74545-14.93305-44.59678,8.99031-83.91986,34.16841-110.72412,70.89629-1.23331,1.68806-1.73568,3.75707-1.41188,5.8237,.3238,2.06425,1.43093,3.8785,3.11899,5.10705Z"/>
  <path class="cls-1" d="M36.44569,231.90505l-.16666-.39523c-7.3832-37.04692-2.20948-74.36051,14.96162-107.90036,.95474-1.85949,1.12617-3.9785,.48571-5.96655-.64046-1.99044-2.01901-3.61184-3.8785-4.56182-1.85473-.95712-3.97612-1.12617-5.95703-.49047-1.99282,.64285-3.6166,2.02377-4.57372,3.8904-18.87584,36.86121-24.51621,77.84378-16.30684,118.53587,.06905,.32857,.18809,.5857,.23571,.59761,.49047,2.39043,1.01189,4.75705,1.58568,7.10701,.86665,3.50232,3.9904,5.94751,7.5951,5.94751,.61904,0,1.24521-.07381,1.88092-.22381,4.18564-1.03808,6.75225-5.288,5.72132-9.47125-.57618-2.32853-1.1095-4.68563-1.5833-7.06892Z"/>
  <path class="cls-1" d="M171.64554,63.71534c-56.27752,11.34741-98.99576,55.22039-108.83129,111.7741-.7357,4.24754,2.12139,8.30461,6.37369,9.04745,4.2404,.74046,8.29984-2.13091,9.04507-6.36893,8.71174-50.13954,46.59437-89.04833,96.5101-99.11957,66.21305-13.31404,130.93088,29.67563,144.26396,95.83868,.04762,.25,.10952,.49047,.14047,.56904,1.08331,5.42371,2.01187,10.77837,2.76423,15.91875,.55951,3.80945,3.88564,6.68083,7.73319,6.68083,.39047,0,.77856-.02619,1.14522-.08571,2.06663-.30238,3.8904-1.39283,5.138-3.06899s1.76663-3.73564,1.46426-5.79989c-.80237-5.48799-1.81663-11.29979-3.01899-17.29729-.05238-.25-.11666-.50713-.14524-.56189-15.29257-74.2748-88.21025-122.52866-162.58267-107.52656Z"/>
  <path class="cls-1" d="M154.73633,197.89854c4.21421,.86189,8.37365-1.8452,9.25459-6.06179,2.91899-14.00926,13.87117-24.89001,27.90186-27.71853,9.36411-1.87616,18.8806-.00714,26.8114,5.25704,7.73319,5.14038,13.09499,12.96166,15.05924,21.80673,.02857,.29761,.06905,.59523,.12857,.89998,3.01423,14.91163,4.56182,30.13991,4.60468,45.26344,.01667,4.3023,3.52374,7.80462,7.83795,7.80462,2.09282-.00476,4.05707-.82379,5.53323-2.3071,1.4714-1.48092,2.27853-3.44755,2.27139-5.53323-.04048-15.88304-1.64045-31.88512-4.7261-47.34435-.02381-.32142-.06905-.64523-.12857-.96903l-.00476-.02857c-2.71185-13.44737-10.49504-25.03048-21.91626-32.61844-11.40693-7.58319-25.09477-10.26886-38.5588-7.56891-20.17581,4.07135-35.9279,19.7163-40.1302,39.8564-.88094,4.22373,1.83568,8.37603,6.06179,9.26173Z"/>
  <path class="cls-1" d="M206.65679,197.5676c-.8476-4.20468-4.99276-6.95701-9.21173-6.12369-2.04758,.4119-3.81421,1.59759-4.97134,3.34041-1.15712,1.74044-1.56664,3.8285-1.15474,5.8737,11.68073,57.93701-4.02612,116.66686-43.08967,161.12793-2.84042,3.23803-2.52376,8.1927,.71427,11.04741,1.43093,1.24998,3.26184,1.93806,5.15943,1.93806,2.25472,0,4.39992-.96665,5.88084-2.65471,42.31349-48.16338,59.32508-111.786,46.67294-174.54911Z"/>
  <path class="cls-1" d="M376.97741,163.22538c-.07381-.35952-.20238-.60475-.2119-.50475-9.32602-45.60629-35.43505-85.44126-73.51767-112.16933-1.70949-1.20474-3.79041-1.6714-5.84275-1.3095-2.06425,.3619-3.86183,1.50473-5.05943,3.21661-1.19998,1.70949-1.66187,3.78564-1.30236,5.84275,.3619,2.05949,1.50235,3.85469,3.21184,5.05467,34.95173,24.53049,58.85128,61.10124,67.2916,102.95759,.05714,.3119,.15952,.52856,.16904,.45713,2.34758,11.80454,3.42613,23.81384,3.20232,35.69933-.07619,4.30706,3.36422,7.8808,7.82842,7.9689,4.22849,0,7.73557-3.44279,7.81652-7.67605,.24761-13.18309-.95951-26.48522-3.58565-39.53735Z"/>
  <path class="cls-1" d="M291.80996,180.36792c-5.00229-24.79715-19.36154-46.16104-40.43496-60.16078-21.06151-13.99498-46.33247-18.95679-71.15343-13.95926-24.76382,4.99276-46.12533,19.36392-60.14649,40.46591-14.01878,21.10437-18.99012,46.36342-13.99498,71.12962,.09286,.45952,.22619,.89522,.29761,.9976,1.88806,9.83315,2.3071,19.81153,1.24283,29.66135-.4619,4.28325,2.65233,8.14985,6.95701,8.61889,4.29992,.40237,8.1427-2.68328,8.60222-6.94511,1.26426-11.79264,.70475-23.7186-1.66664-35.45648-.09286-.45713-.22619-.89998-.29285-.96903-7.97366-42.30873,19.88058-83.65081,62.09407-92.16256,20.7139-4.17849,41.8135-.04524,59.40365,11.65216,17.48062,11.61169,29.44469,29.32802,33.6708,49.75383l.07857,.50475c6.6213,32.80177,7.24034,66.044,1.8452,98.80529-.69284,4.25706,2.19996,8.29032,6.48797,8.99507,.41666,.05952,.82617,.09762,1.23807,.09762,3.84517,0,7.08796-2.75709,7.71414-6.55464,5.67608-34.50173,5.04752-69.50822-1.85949-104.00758l-.08333-.46666Z"/>
  <path class="cls-1" d="M332.05444,209.78165l-.00238,.00238c-2.08568,.13095-3.99278,1.06665-5.37609,2.63566-1.38093,1.56664-2.06901,3.5785-1.93568,5.6618,2.14996,34.16841-1.23093,68.27729-10.04981,101.38381-1.1095,4.16421,1.37855,8.45698,5.55228,9.56887,.68094,.17857,1.35712,.26904,2.01187,.26904,3.53327,0,6.64035-2.39043,7.557-5.81656,9.25459-34.73744,12.80214-70.53201,10.54266-106.38848-.2738-4.37611-3.95945-7.607-8.29984-7.31653Z"/>
  <path class="cls-1" d="M282.21014,303.05848c-2.02377-.54999-4.12849-.27619-5.93322,.77141-1.80711,1.04522-3.09994,2.73566-3.63803,4.75705-4.54277,16.94968-10.73313,33.5208-18.4068,49.25622-1.88568,3.87374-.26666,8.56413,3.61184,10.45933,1.07855,.5238,2.23091,.78808,3.42375,.78808,3.01661,0,5.7118-1.68568,7.03082-4.39754,8.10937-16.63778,14.65211-34.15174,19.44487-52.05379,.54761-2.01901,.27142-4.12849-.7738-5.93798-1.04522-1.81187-2.73566-3.10708-4.75943-3.64279Z"/>
  <path class="cls-1" d="M245.68701,257.09981c-2.06663-.22619-4.10707,.34999-5.74513,1.64759-1.64521,1.30474-2.6809,3.16423-2.91423,5.238-4.24992,37.19692-17.72824,73.27958-38.98022,104.3409-1.18093,1.7214-1.6214,3.79993-1.23569,5.85227,.38333,2.05472,1.54521,3.83564,3.26661,5.01419,1.30236,.89522,2.8309,1.36902,4.41658,1.36902,2.59043,0,5.00467-1.27379,6.4594-3.40232,22.69481-33.16843,37.0874-71.68913,41.61827-111.40267,.48094-4.2904-2.60709-8.17366-6.88559-8.65698Z"/>
</svg>