<svg xmlns="http://www.w3.org/2000/svg" viewBox="0 0 168.54 168.54">
    <defs>
        <style>.cls-1{fill:none;}.cls-1,.cls-2{stroke:#bd1622;stroke-miterlimit:10;stroke-width:2.13px;}.cls-2{fill:#bd1622;}</style>
    </defs>
    <title>404</title>
    <g id="Warstwa_2" data-name="Warstwa 2">
        <g id="Capa_1" data-name="Capa 1">
            <path class="cls-1" d="M164.71,95.37H150.84c-3.81,0-5.3-4.54-7.3-12-1.61-6-3.27-12.24-7.8-15.25-6.66-4.44-16.05-4.16-21-3.66a16.63,16.63,0,0,0-13.85-16v-3h.14c5,0,14.7-.83,21.22-6.72a20,20,0,0,0,6.38-15.58,2.78,2.78,0,0,0-5.55,0,14.57,14.57,0,0,1-4.53,11.46c-5.17,4.69-13.52,5.3-17.66,5.3a16.59,16.59,0,0,0-7-13.54,62.89,62.89,0,0,1,13-13.7c3.32-2.52,9.9-6.65,16.64-6,5.62.58,9.58,6.35,11.91,11.09a145.28,145.28,0,0,1,8.38,22.87c.46,1.56.87,3.15,1.27,4.75a63.93,63.93,0,0,0,3.92,12,11,11,0,0,0,7.49,5.94,8.79,8.79,0,0,0,1.77.18,8.29,8.29,0,0,0,5.53-2.11,2.77,2.77,0,1,0-3.64-4.18,2.83,2.83,0,0,1-2.55.67A5.54,5.54,0,0,1,154,55,58.45,58.45,0,0,1,150.44,44c-.42-1.67-.83-3.33-1.32-4.95a150,150,0,0,0-8.72-23.77c-4.23-8.6-9.87-13.49-16.33-14.16-8.59-.85-16.56,4.06-20.55,7.06A69.16,69.16,0,0,0,88.79,23.89a16.34,16.34,0,0,0-9,0A69.29,69.29,0,0,0,65,8.23c-4-3-12-7.93-20.57-7.07C38,1.83,32.38,6.71,28.14,15.32a151.39,151.39,0,0,0-8.72,23.77c-.47,1.63-.89,3.29-1.31,4.95A59.09,59.09,0,0,1,14.57,55,5.55,5.55,0,0,1,11,57.89a2.83,2.83,0,0,1-2.55-.67A2.77,2.77,0,1,0,4.78,61.4a8.29,8.29,0,0,0,5.53,2.11,8.79,8.79,0,0,0,1.77-.18,11,11,0,0,0,7.49-5.95,62.86,62.86,0,0,0,3.91-12c.41-1.6.82-3.19,1.27-4.75a146.36,146.36,0,0,1,8.37-22.88C35.45,13,39.41,7.26,45,6.67c6.68-.67,13.31,3.46,16.66,6a62.79,62.79,0,0,1,13,13.69,16.64,16.64,0,0,0-7,13.56c-4.14,0-12.48-.61-17.65-5.3a14.53,14.53,0,0,1-4.54-11.46,2.78,2.78,0,0,0-5.55,0,20.08,20.08,0,0,0,6.38,15.58c6.51,5.89,16.23,6.72,21.22,6.72h.14v3a16.62,16.62,0,0,0-13.84,16c-4.94-.53-14.34-.78-21,3.65-4.53,3-6.2,9.24-7.81,15.25-2,7.48-3.48,12-7.29,12H3.84a2.78,2.78,0,1,0,0,5.55H17.7c8.35,0,10.64-8.57,12.66-16.13,1.35-5,2.74-10.22,5.53-12.08,5.41-3.6,13.86-3.16,17.87-2.68v40.59c-4.39,3.44-19.62,16.51-22.16,34.27-2.32,16.26-8.41,17-8.35,17a2.78,2.78,0,0,0,0,5.55c1.11,0,10.82-.61,13.84-21.79,1.78-12.43,11.06-22.61,16.69-27.77a30.29,30.29,0,0,0,5.63,17.26l0,0a30.41,30.41,0,0,0,49.66,0l0,0a30.31,30.31,0,0,0,5.63-17.26c5.64,5.16,14.92,15.34,16.69,27.77,3,21.18,12.73,21.79,13.84,21.79a2.72,2.72,0,0,0,2.7-2.64,2.85,2.85,0,0,0-2.57-2.91c-.07,0-6.16-.78-8.48-17-2.53-17.75-17.77-30.84-22.16-34.27V70c4-.46,12.47-.92,17.88,2.69,2.79,1.86,4.18,7.06,5.52,12.09,2,7.55,4.31,16.12,12.66,16.12h13.87a2.78,2.78,0,0,0,0-5.55Zm-55.48,22.19a24.73,24.73,0,0,1-3.2,12.2,15.09,15.09,0,0,1-7.89-13.59,2.78,2.78,0,0,0-5.55,0,20.59,20.59,0,0,0,10.17,18.1,24.9,24.9,0,0,1-15.71,8.09V67.63a2.78,2.78,0,0,0-5.55,0v74.73a24.93,24.93,0,0,1-15.72-8.09A20.57,20.57,0,0,0,76,116.17a2.78,2.78,0,0,0-5.55,0,15.1,15.1,0,0,1-7.88,13.59,24.74,24.74,0,0,1-3.21-12.2V64.86A11.09,11.09,0,0,1,70.4,53.77H98.14a11.08,11.08,0,0,1,11.09,11.09v52.7Z"/>
            <path class="cls-2" d="M73.18,39.9a11.1,11.1,0,1,1,22.19,0v8.32H73.18Z"/>
        </g>
    </g>
</svg>