<svg id="Warstwa_1" data-name="Warstwa 1" xmlns="http://www.w3.org/2000/svg" viewBox="0 0 128.9 21.43"><defs><style>.cls-1{fill:#fff;}.cls-2{fill:#bd1622;}</style></defs><path class="cls-1" d="M40.54,12.13,38.83,9h-1v3.17h-3V2.19H40A4.44,4.44,0,0,1,42.83,3a2.94,2.94,0,0,1,1,2.44,3.45,3.45,0,0,1-.49,1.75A3,3,0,0,1,42,8.38l2.48,3.8H40.54Zm-.25-5.55a1.37,1.37,0,0,0,.3-1,1.15,1.15,0,0,0-.3-.87.94.94,0,0,0-.68-.3h-1.8V6.87h1.8A1,1,0,0,0,40.29,6.58Z" transform="translate(-0.1)"/><path class="cls-1" d="M50.33,12.13V2.19h7.06V4.43h-4V6h3.46V8.28H53.3V9.89h4.09v2.24Z" transform="translate(-0.1)"/><path class="cls-1" d="M63.77,2.19h4.39A5,5,0,0,1,72,3.46a5.14,5.14,0,0,1,1.21,3.75A5,5,0,0,1,72,10.91a5.18,5.18,0,0,1-3.8,1.27H63.77Zm4,7.7a2.3,2.3,0,0,0,1.75-.68,3,3,0,0,0,.59-2.05c0-1.85-.78-2.73-2.34-2.73h-1V9.89Z" transform="translate(-0.1)"/><path class="cls-1" d="M82,12.13V3.22H78.48v-1h8.09v1H83.06v9H82Z" transform="translate(-0.1)"/><path class="cls-1" d="M92.61,12.13V2.19H98.9v1H93.68v3.4h4.58V7.7H93.68v3.46H98.9v1H92.61Z" transform="translate(-0.1)"/><path class="cls-1" d="M112.63,12.13,111.41,9h-4.28l-1.22,3.12h-1.17l4-9.94h1.07l3.94,9.94ZM107.52,8H111l-1.75-4.53Z" transform="translate(-0.1)"/><path class="cls-1" d="M127.83,2.19H129v9.94h-1.07V4L124.32,9,120.91,4v8.18h-1.07V2.19H121l3.36,5.17Z" transform="translate(-0.1)"/><path class="cls-2" d="M26.75,21.43h-6L11.26,9.55H15.4a4.17,4.17,0,0,0,2.53-.68,2.31,2.31,0,0,0,.88-1.95A2.31,2.31,0,0,0,17.93,5a4.1,4.1,0,0,0-2.53-.68H9.12L5.71,0H17.5a8.28,8.28,0,0,1,3.11.54A5.74,5.74,0,0,1,22.81,2a6.29,6.29,0,0,1,1.31,2.09,7.43,7.43,0,0,1,.44,2.58,6.38,6.38,0,0,1-1.17,4,5.77,5.77,0,0,1-3.51,2l4,5.22ZM.1,5.75,9.56,17.63h6L6.15,5.75Z" transform="translate(-0.1)"/><path class="cls-1" d="M34.84,16.66c0-1.34.61-2,1.85-2a2.83,2.83,0,0,1,1.21.29v.58a2.2,2.2,0,0,0-1.13-.33,1.24,1.24,0,0,0-1,.35,1.73,1.73,0,0,0-.31,1.13,1.68,1.68,0,0,0,.31,1.12,1.27,1.27,0,0,0,1,.34,2.17,2.17,0,0,0,1.11-.31v.58a2.56,2.56,0,0,1-.59.2,2.7,2.7,0,0,1-.62.08C35.45,18.68,34.84,18,34.84,16.66Z" transform="translate(-0.1)"/><path class="cls-1" d="M41.32,15.68,40.11,18.8c-.25.64-.59.95-1,.95a.94.94,0,0,1-.39-.07v-.52a.79.79,0,0,0,.3.05.46.46,0,0,0,.36-.15,1.31,1.31,0,0,0,.22-.46l-1.2-2.92h.7l.8,2.2.79-2.2Z" transform="translate(-0.1)"/><path class="cls-1" d="M44.29,16a1.62,1.62,0,0,1,.34,1.11,1.58,1.58,0,0,1-.4,1.23,1.53,1.53,0,0,1-1,.36c-.83,0-1.25-.23-1.25-.67V14.51h.6V15.8a1.63,1.63,0,0,1,.39-.13,1.3,1.3,0,0,1,.37-.05A1.22,1.22,0,0,1,44.29,16Zm-.47,1.89a1.37,1.37,0,0,0,.19-.76,1.21,1.21,0,0,0-.2-.74.71.71,0,0,0-.6-.26,1.45,1.45,0,0,0-.35,0,1.13,1.13,0,0,0-.32.13v1.58c0,.19.21.28.61.28A.77.77,0,0,0,43.82,17.9Z" transform="translate(-0.1)"/><path class="cls-1" d="M47.56,16.05a2.05,2.05,0,0,1,.31,1.24H45.81a1,1,0,0,0,.26.66.86.86,0,0,0,.64.22,2.1,2.1,0,0,0,.51-.06,2.24,2.24,0,0,0,.44-.18v.58a2.69,2.69,0,0,1-1,.2,1.39,1.39,0,0,1-1-.4,1.62,1.62,0,0,1-.38-1.14A1.68,1.68,0,0,1,45.55,16a1.3,1.3,0,0,1,1-.4A1.16,1.16,0,0,1,47.56,16.05Zm-1.51.23a.91.91,0,0,0-.22.55h1.42a.93.93,0,0,0-.21-.54.66.66,0,0,0-.5-.17A.69.69,0,0,0,46.05,16.28Z" transform="translate(-0.1)"/><path class="cls-1" d="M48.58,16a2.92,2.92,0,0,1,.56-.22,3,3,0,0,1,.77-.11,1,1,0,0,1,.4.07v.5a2.21,2.21,0,0,0-.39,0,4.23,4.23,0,0,0-.73.06v2.4h-.61Z" transform="translate(-0.1)"/><path class="cls-1" d="M53.1,18.62a2.89,2.89,0,0,1-.6-.24v-.64a2.12,2.12,0,0,0,.56.3,2.28,2.28,0,0,0,.7.11.82.82,0,0,0,.53-.15.48.48,0,0,0,.18-.41.44.44,0,0,0-.1-.3.83.83,0,0,0-.26-.19l-.45-.18-.13-.05a3,3,0,0,1-.53-.23,1,1,0,0,1-.48-.89,1,1,0,0,1,.14-.53,1.07,1.07,0,0,1,.43-.41,1.54,1.54,0,0,1,.75-.16,2.15,2.15,0,0,1,.55.06,2.82,2.82,0,0,1,.52.21v.63a3.44,3.44,0,0,0-.51-.28,1.38,1.38,0,0,0-.52-.09.85.85,0,0,0-.52.14.45.45,0,0,0-.18.37.5.5,0,0,0,.09.31.66.66,0,0,0,.27.19,4.46,4.46,0,0,0,.46.18,3.11,3.11,0,0,1,.59.24A1.07,1.07,0,0,1,55,17a1,1,0,0,1,.16.56,1.18,1.18,0,0,1-.15.59,1,1,0,0,1-.44.43,1.67,1.67,0,0,1-.75.16A3.36,3.36,0,0,1,53.1,18.62Z" transform="translate(-0.1)"/><path class="cls-1" d="M58.09,16.05a2.13,2.13,0,0,1,.31,1.24H56.34a1,1,0,0,0,.25.66.87.87,0,0,0,.64.22,2.18,2.18,0,0,0,.52-.06,2.14,2.14,0,0,0,.43-.18v.58a2.61,2.61,0,0,1-1,.2,1.37,1.37,0,0,1-1-.4,1.62,1.62,0,0,1-.38-1.14A1.68,1.68,0,0,1,56.08,16a1.28,1.28,0,0,1,1-.4A1.18,1.18,0,0,1,58.09,16.05Zm-1.51.23a.91.91,0,0,0-.23.55h1.42a.81.81,0,0,0-.21-.54.64.64,0,0,0-.49-.17A.69.69,0,0,0,56.58,16.28Z" transform="translate(-0.1)"/><path class="cls-1" d="M59.37,18.32A1.43,1.43,0,0,1,59,17.17,1.54,1.54,0,0,1,59.36,16a1.49,1.49,0,0,1,1-.36,2.44,2.44,0,0,1,.9.17v.55a2.13,2.13,0,0,0-.81-.18.9.9,0,0,0-.69.23,1,1,0,0,0-.23.73,1.16,1.16,0,0,0,.22.77,1,1,0,0,0,.72.24,1.84,1.84,0,0,0,.8-.19v.55a2.27,2.27,0,0,1-.9.19A1.5,1.5,0,0,1,59.37,18.32Z" transform="translate(-0.1)"/><path class="cls-1" d="M62.35,18.4a1.1,1.1,0,0,1-.34-.88V15.68h.61v1.76a.79.79,0,0,0,.17.55.66.66,0,0,0,.51.18.67.67,0,0,0,.52-.18.79.79,0,0,0,.17-.55V15.68h.59v1.84a1.12,1.12,0,0,1-.33.88,1.34,1.34,0,0,1-1,.31A1.36,1.36,0,0,1,62.35,18.4Z" transform="translate(-0.1)"/><path class="cls-1" d="M65.45,16a2.76,2.76,0,0,1,.55-.22,3,3,0,0,1,.78-.11,1,1,0,0,1,.4.07v.5a2.25,2.25,0,0,0-.4,0,4.2,4.2,0,0,0-.72.06v2.4h-.61Z" transform="translate(-0.1)"/><path class="cls-1" d="M67.78,15.21v-.55h.65v.55Zm0,3.41V15.7h.61v2.92Z" transform="translate(-0.1)"/><path class="cls-1" d="M69.71,18.48a.83.83,0,0,1-.22-.62V16.19H69v-.51h.48v-.82h.63v.82h.71v.51h-.71v1.55a.49.49,0,0,0,.07.31.31.31,0,0,0,.27.1l.2,0a.67.67,0,0,0,.17-.06v.54a1.21,1.21,0,0,1-.48.09A.93.93,0,0,1,69.71,18.48Z" transform="translate(-0.1)"/><path class="cls-1" d="M74.22,15.68,73,18.8c-.25.64-.59.95-1,.95a.94.94,0,0,1-.39-.07v-.52a.79.79,0,0,0,.3.05.46.46,0,0,0,.36-.15,1.31,1.31,0,0,0,.22-.46l-1.2-2.92H72l.8,2.2.8-2.2Z" transform="translate(-0.1)"/><path class="cls-1" d="M77,18.62a3.05,3.05,0,0,1-.59-.24v-.64A2,2,0,0,0,77,18a2.26,2.26,0,0,0,.69.11.83.83,0,0,0,.54-.15.48.48,0,0,0,.18-.41.44.44,0,0,0-.11-.3A.83.83,0,0,0,78,17.1c-.11-.05-.25-.11-.45-.18l-.12-.05a2.7,2.7,0,0,1-.53-.23,1,1,0,0,1-.35-.33,1.06,1.06,0,0,1-.14-.56,1.13,1.13,0,0,1,.14-.53,1,1,0,0,1,.44-.41,1.54,1.54,0,0,1,.75-.16,2.06,2.06,0,0,1,.54.06,3.19,3.19,0,0,1,.53.21v.63a3,3,0,0,0-.52-.28,1.29,1.29,0,0,0-.51-.09.88.88,0,0,0-.53.14.49.49,0,0,0-.08.68.63.63,0,0,0,.26.19l.46.18a3.55,3.55,0,0,1,.6.24,1.07,1.07,0,0,1,.39.34,1,1,0,0,1,.15.56,1.28,1.28,0,0,1-.14.59,1.1,1.1,0,0,1-.45.43,1.67,1.67,0,0,1-.75.16A3.36,3.36,0,0,1,77,18.62Z" transform="translate(-0.1)"/><path class="cls-1" d="M82,16.05a2.05,2.05,0,0,1,.31,1.24H80.26a1,1,0,0,0,.26.66.86.86,0,0,0,.64.22,2.1,2.1,0,0,0,.51-.06,1.92,1.92,0,0,0,.43-.18v.58a2.61,2.61,0,0,1-1,.2,1.39,1.39,0,0,1-1-.4,1.62,1.62,0,0,1-.38-1.14A1.68,1.68,0,0,1,80,16a1.3,1.3,0,0,1,1-.4A1.16,1.16,0,0,1,82,16.05Zm-1.51.23a1,1,0,0,0-.23.55H81.7a.93.93,0,0,0-.21-.54.66.66,0,0,0-.5-.17A.69.69,0,0,0,80.5,16.28Z" transform="translate(-0.1)"/><path class="cls-1" d="M83,16a2.92,2.92,0,0,1,.56-.22,3,3,0,0,1,.77-.11,1,1,0,0,1,.4.07v.5a2.21,2.21,0,0,0-.39,0,4.23,4.23,0,0,0-.73.06v2.4H83Z" transform="translate(-0.1)"/><path class="cls-1" d="M87.56,15.68h.64L87,18.62h-.62l-1.23-2.94h.66L86.7,18Z" transform="translate(-0.1)"/><path class="cls-1" d="M88.81,15.21v-.55h.65v.55Zm0,3.41V15.7h.62v2.92Z" transform="translate(-0.1)"/><path class="cls-1" d="M90.59,18.32a1.43,1.43,0,0,1-.41-1.15,1.54,1.54,0,0,1,.4-1.19,1.5,1.5,0,0,1,1-.36,2.53,2.53,0,0,1,.91.17v.55a2.22,2.22,0,0,0-.82-.18.9.9,0,0,0-.69.23,1,1,0,0,0-.23.73,1.11,1.11,0,0,0,.23.77.91.91,0,0,0,.71.24,1.84,1.84,0,0,0,.8-.19v.55a2.27,2.27,0,0,1-.9.19A1.5,1.5,0,0,1,90.59,18.32Z" transform="translate(-0.1)"/><path class="cls-1" d="M95.44,16.05a2.05,2.05,0,0,1,.31,1.24h-2A1,1,0,0,0,94,18a.86.86,0,0,0,.64.22,2.24,2.24,0,0,0,.52-.06,2.41,2.41,0,0,0,.43-.18v.58a2.66,2.66,0,0,1-1.05.2,1.39,1.39,0,0,1-1-.4,1.61,1.61,0,0,1-.37-1.14A1.73,1.73,0,0,1,93.43,16a1.32,1.32,0,0,1,1-.4A1.16,1.16,0,0,1,95.44,16.05Zm-1.5.23a.85.85,0,0,0-.23.55h1.42a.93.93,0,0,0-.21-.54.66.66,0,0,0-.5-.17A.65.65,0,0,0,93.94,16.28Z" transform="translate(-0.1)"/><path class="cls-1" d="M96.8,18.65a2.63,2.63,0,0,1-.45-.18v-.58a3.13,3.13,0,0,0,.47.25,1.53,1.53,0,0,0,.49.07.63.63,0,0,0,.39-.1.3.3,0,0,0,.15-.26.26.26,0,0,0-.12-.24,2.17,2.17,0,0,0-.36-.16l-.14-.05a1.7,1.7,0,0,1-.65-.28.71.71,0,0,1-.24-.59A.76.76,0,0,1,96.5,16a.91.91,0,0,1,.42-.3,1.5,1.5,0,0,1,.52-.1,2,2,0,0,1,.47.07,2.41,2.41,0,0,1,.42.18v.53a3.47,3.47,0,0,0-.46-.22,1,1,0,0,0-.37-.06.69.69,0,0,0-.38.09.27.27,0,0,0-.15.24.3.3,0,0,0,.15.28,2.55,2.55,0,0,0,.45.17,3.15,3.15,0,0,1,.47.16.77.77,0,0,1,.3.25.73.73,0,0,1,.13.47.76.76,0,0,1-.34.69,1.37,1.37,0,0,1-.82.24A1.93,1.93,0,0,1,96.8,18.65Z" transform="translate(-0.1)"/><path class="cls-1" d="M101.2,18.65a2.42,2.42,0,0,1-.46-.18v-.58a2.78,2.78,0,0,0,.48.25,1.43,1.43,0,0,0,.48.07.68.68,0,0,0,.4-.1.31.31,0,0,0,.14-.26.26.26,0,0,0-.12-.24,2.17,2.17,0,0,0-.36-.16l-.13-.05a1.75,1.75,0,0,1-.66-.28.71.71,0,0,1-.24-.59.82.82,0,0,1,.16-.51.91.91,0,0,1,.42-.3,1.5,1.5,0,0,1,.52-.1,1.87,1.87,0,0,1,.47.07,2.41,2.41,0,0,1,.42.18v.53a4.27,4.27,0,0,0-.45-.22,1.08,1.08,0,0,0-.38-.06.71.71,0,0,0-.38.09.27.27,0,0,0-.15.24.3.3,0,0,0,.15.28,2.91,2.91,0,0,0,.45.17,3.15,3.15,0,0,1,.47.16.71.71,0,0,1,.3.25.73.73,0,0,1,.14.47.79.79,0,0,1-.35.69,1.37,1.37,0,0,1-.82.24A1.85,1.85,0,0,1,101.2,18.65Z" transform="translate(-0.1)"/><path class="cls-1" d="M103.58,15.21v-.55h.66v.55Zm0,3.41V15.7h.62v2.92Z" transform="translate(-0.1)"/><path class="cls-1" d="M105.75,15.7a3.69,3.69,0,0,1,.72-.08,1.27,1.27,0,0,1,.9.26,1,1,0,0,1,.3.8v1.94h-.62V16.76c0-.41-.23-.62-.69-.62a1.69,1.69,0,0,0-.64.12v2.36h-.61v-2.7A2.64,2.64,0,0,1,105.75,15.7Z" transform="translate(-0.1)"/><path class="cls-1" d="M108.79,18.32a1.46,1.46,0,0,1-.41-1.15,1.54,1.54,0,0,1,.41-1.19,1.49,1.49,0,0,1,1-.36,2.52,2.52,0,0,1,.9.17v.55a2.21,2.21,0,0,0-.81-.18.9.9,0,0,0-.69.23,1,1,0,0,0-.23.73,1.11,1.11,0,0,0,.22.77.94.94,0,0,0,.71.24,1.77,1.77,0,0,0,.8-.19v.55a2.27,2.27,0,0,1-.9.19A1.52,1.52,0,0,1,108.79,18.32Z" transform="translate(-0.1)"/><path class="cls-1" d="M113.65,16.05a2.13,2.13,0,0,1,.31,1.24H111.9a1,1,0,0,0,.25.66.9.9,0,0,0,.65.22,1.76,1.76,0,0,0,.94-.24v.58a2.61,2.61,0,0,1-1,.2,1.39,1.39,0,0,1-1-.4,1.62,1.62,0,0,1-.38-1.14,1.68,1.68,0,0,1,.36-1.16,1.29,1.29,0,0,1,1-.4A1.18,1.18,0,0,1,113.65,16.05Zm-1.51.23a.91.91,0,0,0-.23.55h1.42a.81.81,0,0,0-.21-.54.64.64,0,0,0-.49-.17A.69.69,0,0,0,112.14,16.28Z" transform="translate(-0.1)"/><path class="cls-1" d="M118.91,18v.61h-2.58v-.5a7,7,0,0,0,.82-.65,5.19,5.19,0,0,0,.74-.83,1.42,1.42,0,0,0,.3-.79.59.59,0,0,0-.19-.46.9.9,0,0,0-.62-.18,1.72,1.72,0,0,0-1,.38V15a2.22,2.22,0,0,1,1.16-.33,1.39,1.39,0,0,1,1,.32,1.1,1.1,0,0,1,.33.83,1.67,1.67,0,0,1-.47,1.1A8.28,8.28,0,0,1,117.21,18Z" transform="translate(-0.1)"/><path class="cls-1" d="M120.07,18.19a2.39,2.39,0,0,1-.4-1.51c0-1.34.54-2,1.61-2a1.44,1.44,0,0,1,1.21.5,2.43,2.43,0,0,1,.39,1.51,2.45,2.45,0,0,1-.39,1.51,1.71,1.71,0,0,1-2.42,0Zm1.68-.16a.83.83,0,0,0,.35-.43,2.46,2.46,0,0,0,.13-.92,1.79,1.79,0,0,0-.26-1.16.9.9,0,0,0-.69-.31.88.88,0,0,0-.69.31,1.78,1.78,0,0,0-.27,1.16,1.88,1.88,0,0,0,.26,1.16.89.89,0,0,0,.7.3A1,1,0,0,0,121.75,18Z" transform="translate(-0.1)"/><path class="cls-1" d="M124.46,18.62V15.36l-.78.47v-.64l.79-.47h.63v3.9Z" transform="translate(-0.1)"/><path class="cls-1" d="M126.28,14.72H129v.46l-1.56,3.44h-.71l1.54-3.29h-2Z" transform="translate(-0.1)"/></svg>