<?xml version="1.0" encoding="utf-8"?>
<!-- Generator: Adobe Illustrator 25.1.0, SVG Export Plug-In . SVG Version: 6.00 Build 0)  -->
<svg version="1.1" id="Calque_1" xmlns="http://www.w3.org/2000/svg" xmlns:xlink="http://www.w3.org/1999/xlink" x="0px" y="0px"
	 viewBox="0 0 1000 1000" style="enable-background:new 0 0 1000 1000;" xml:space="preserve">
<style type="text/css">
	.st0{fill:#D1D1D6;}
	.st1{fill:#F2F2F7;}
	.st2{fill:#C7C7CC;}
	.st3{fill:#AEAEB2;}
	.st4{fill:#30302F;}
	.st5{fill:#F52935;}
	.st6{fill:#BC172F;}
</style>
<g id="Red_Team_logo_17_">
	<g id="Wind_right_17_">
		<g>
			<polygon class="st0" points="690.5,460.7 534,594.4 500.1,752.5 525.6,736.6 601.3,652 624.7,607.4 635.1,562.9 			"/>
			<polygon class="st1" points="500.1,752.5 561.3,646.8 595.9,640.5 585.5,617.5 613.3,596.5 601.3,578.2 690.5,460.7 635.1,562.9 
				634,570 672.4,594.5 630.6,628 641.2,665.7 580,678.7 555.4,733.6 555.4,733.6 555.4,733.6 550.6,744.2 523.1,750.1 523.1,750.1 
				523.1,750.1 504.2,754.1 			"/>
		</g>
		<g>
			<polygon class="st1" points="551.9,744.2 573,698.2 599,758.9 621.1,824.4 			"/>
			<polygon class="st0" points="621.1,824.4 551.9,744.2 505.5,756.5 621.1,828.7 			"/>
		</g>
		<g>
			<polygon class="st2" points="769.9,748.6 582.8,680.8 643.2,670.9 			"/>
			<polygon class="st3" points="769.9,748.6 582.8,680.8 573,693.4 582.8,718.2 616,801.2 			"/>
		</g>
		<g>
			<polygon class="st1" points="888,586.1 673.7,596.7 631.9,628 645.1,667.8 888,592.1 			"/>
			<polygon class="st0" points="883.3,589.9 647.3,664.2 738.2,720 			"/>
		</g>
		<g>
			<polygon class="st3" points="878.2,295.6 637.3,567.9 678.8,600 837.3,584.2 890.6,290.7 			"/>
			<polygon class="st2" points="878.2,295.6 637.3,567.9 711.2,443.6 			"/>
		</g>
		<g>
			<polygon class="st0" points="861.7,299.4 708.1,354.9 745,403 			"/>
			<polygon class="st1" points="685,331.8 708.1,354.9 861.7,299.4 			"/>
		</g>
		<g>
			<polygon class="st2" points="584.8,811.8 499.9,801.2 503.8,763.2 			"/>
			<polygon class="st3" points="584.8,811.8 503.8,844 499.9,801.2 			"/>
		</g>
	</g>
	<g id="Wind_left_17_">
		<g>
			<polygon class="st1" points="415,811.8 499.9,801.2 496.1,763.2 			"/>
			<polygon class="st0" points="415,811.8 496.1,844 499.9,801.2 			"/>
		</g>
		<g>
			<polygon class="st2" points="447.9,744.2 426.9,698.2 400.8,758.9 378.7,824.4 			"/>
			<polygon class="st3" points="378.7,824.4 447.9,744.2 494.3,756.5 378.7,828.7 			"/>
		</g>
		<g>
			<polygon class="st1" points="229.9,748.6 417.1,680.8 356.6,670.9 			"/>
			<polygon class="st0" points="229.9,748.6 417.1,680.8 426.9,693.4 417.1,718.2 383.8,801.2 			"/>
		</g>
		<g>
			<polygon class="st2" points="111.8,586.1 326.1,596.7 367.9,628 354.8,667.8 111.8,592.1 			"/>
			<polygon class="st3" points="116.6,589.9 352.5,664.2 261.6,720 			"/>
		</g>
		<g>
			<polygon class="st0" points="121.6,295.6 362.5,567.9 321,600 162.5,584.2 109.2,290.7 			"/>
			<polygon class="st1" points="121.6,295.6 362.5,567.9 288.7,443.6 			"/>
		</g>
		<g>
			<polygon class="st3" points="138.1,299.4 291.7,354.9 254.8,403 			"/>
			<polygon class="st2" points="314.9,331.8 291.7,354.9 138.1,299.4 			"/>
		</g>
		<g>
			<polygon class="st3" points="308,460.7 464.5,594.4 498.5,752.5 472.9,736.6 397.3,652 373.8,607.4 363.4,562.9 			"/>
			<polygon class="st2" points="498.5,752.5 437.2,646.8 402.6,640.5 413,617.5 385.2,596.5 397.3,578.2 308,460.7 363.4,562.9 
				364.5,570 326.1,594.5 367.9,628 357.3,665.7 418.5,678.7 443.1,733.6 443.1,733.6 443.1,733.6 447.9,744.2 475.4,750.1 
				475.4,750.1 475.4,750.1 494.3,754.1 			"/>
		</g>
	</g>
	<path id="Wing_border_17_" class="st4" d="M897.8,584c-0.6-1.5-2.1-2.5-3.8-2.4l-48.6,2.4l45.3-293.2c0.2-1.6-0.1-3.1-0.8-4.5
		l-1.8,0.3l0,0l-14.5,2.7L705.8,437.9c-0.5,0.5-1,1-1.4,1.7l-74.3,125.2c-1,1.6-1.2,3.5-0.8,5.4c0.5,1.8,1.7,3.4,3.3,4.3l35.4,20.3
		c-2.2,1-4.3,2.2-6.3,3.7l-32.3,25.3c-1.3,1-1.8,2.7-1.3,4.2l10.8,35.7l-59.7,9.8c-1.4,0.2-2.5,1.1-3,2.4l-25.7,65l-45.9,9.9
		c-2.2,0.5-3.9,2-4.6,4c-0.7-2.1-2.5-3.6-4.7-4.1l-45.9-9.9l-25.7-65c-0.5-1.3-1.7-2.2-3-2.4l-59.7-9.8l10.8-35.7
		c0.5-1.6-0.1-3.2-1.3-4.2l-32.3-25.3c-1.9-1.5-4.1-2.8-6.3-3.7l35.4-20.3c1.6-0.9,2.8-2.5,3.3-4.3s0.2-3.7-0.8-5.4l-74.4-125.3
		c-0.4-0.6-0.8-1.2-1.4-1.7L126.4,289.3l-14.5-2.7l0,0l-1.8-0.3c-0.7,1.3-1,2.9-0.8,4.5L154.6,584l-48.6-2.4
		c-1.7-0.1-3.2,0.9-3.8,2.4s-0.2,3.3,1,4.4l151.5,135.9l-36.3,22.1c-1.3,0.8-2,2.3-1.8,3.8s1.3,2.8,2.7,3.3l159.1,49.8L367.6,831
		l-0.4,1.1c-0.6,1.6-0.2,3.3,1.1,4.4c0.7,0.6,1.6,0.9,2.5,0.9c0.7,0,1.4-0.2,2-0.6l33.7-20.2l92,36.6c0.1,0,0.1,0,0.2,0
		c0.1,0,0.2,0.1,0.4,0.1c0.1,0,0.2,0,0.3,0.1c0.2,0,0.4,0.1,0.6,0.1l0,0l0,0l0,0l0,0c0.2,0,0.4,0,0.6-0.1c0.1,0,0.2,0,0.3-0.1
		c0.1,0,0.3-0.1,0.4-0.1c0.1,0,0.1,0,0.2,0l91.8-36.5l33.7,20.2c0.6,0.4,1.3,0.6,2,0.6c0.9,0,1.8-0.3,2.5-0.9
		c1.3-1.1,1.7-2.9,1.1-4.4l-0.4-1.1l-10.8-27.7l159.1-49.8c1.5-0.5,2.5-1.7,2.7-3.3c0.2-1.5-0.5-3-1.8-3.8l-36.1-22.2l151.5-135.9
		C898,587.2,898.4,585.6,897.8,584z M637.3,568l73.8-124.4l167-148l4-1.6l0,0l-44.8,290.3l-2.8,0.1l-155,7.8L637.3,568z M117.7,294
		L117.7,294l4,1.6l167,148L362.5,568l-42.2,24.2l-154.9-7.7l-2.8-0.1L117.7,294z M116.6,589.9L321.1,600c4.4,0.2,8.6,1.8,12.1,4.5
		l30.2,23.7l-10.9,36L261.6,720L116.6,589.9z M229.9,748.6l31.8-19.5c0.6,0,1.3-0.2,1.9-0.6l93.1-57.7l60.4,9.9l5.3,13.5
		c-1.1,0.7-2,1.8-2.5,3.1L381.4,796L229.9,748.6z M425.9,703.5l16.4,41c0.8,2,2.5,3.4,4.6,3.9l43.1,9.3l-111.3,66.7L425.9,703.5z
		 M415,811.8l81-48.5V844L415,811.8z M503.9,844v-80.5l80.8,48.4L503.9,844z M509.8,757.8l43.1-9.3c2.1-0.5,3.8-1.9,4.6-3.9l16.4-41
		l47.2,120.9L509.8,757.8z M769.9,748.7l-151.4,47.4L580,697.3c-0.5-1.3-1.4-2.3-2.5-3.1l5.3-13.4l60.4-9.9l93.1,57.7
		c0.6,0.4,1.2,0.5,1.9,0.6L769.9,748.7z M738.2,720.1l-90.9-55.8l-10.9-36l30.2-23.6c3.5-2.7,7.7-4.3,12.1-4.5l204.5-10.1
		L738.2,720.1z"/>
	<g id="Ship_17_">
		<g>
			<polygon class="st0" points="500,157.8 251.9,405.8 305.4,453.1 323.8,452.4 291.7,441 500,232.8 703.5,436.3 714.1,435.8 
				750.8,408.5 			"/>
			<polygon class="st4" points="249.2,408.5 500,157.8 750.8,408.5 756.7,403.3 505.6,152.2 500,146.6 494.4,152.2 243.3,403.3 			
				"/>
		</g>
		<g>
			<g>
				<polygon class="st5" points="500,232.8 291.7,441 464.5,594.4 500,742 535.4,594.4 708.2,441 				"/>
			</g>
			<polygon class="st4" points="285.8,435.8 291.7,441 500,232.8 708.2,441 714.1,435.8 505.6,227.2 500,221.7 494.4,227.2 			"/>
		</g>
		<polygon class="st2" points="500,221.7 254.8,403 288.7,433 		"/>
		<polygon class="st2" points="500,221.7 500,157.8 745.2,403 		"/>
		<polygon class="st6" points="500,232.8 500,725.2 468.1,592.2 294.5,438.2 		"/>
	</g>
	<polygon id="Plane_border_17_" class="st4" points="691.2,322.7 691.2,322.7 682.5,324.3 682.5,324.2 675.4,325.5 681,332.5 
		861.9,299.4 532.8,591.5 531.9,592.2 500,725.2 468.1,592.2 138.1,299.4 319,332.5 329.3,326.5 314.4,323.7 111.8,286.6 461,596.5 
		500,758.9 539,596.5 888.2,286.6 	"/>
	<g id="Star_17_">
		<g>
			<polygon class="st1" points="500.1,311.8 512.3,349.6 552,349.6 519.9,372.9 532.2,410.7 500.1,387.3 467.9,410.7 480.2,372.9 
				448.1,349.6 487.8,349.6 			"/>
			<path class="st4" d="M539.7,421l-39.6-28.8L460.5,421l15.1-46.5L436,345.7h48.9l15.1-46.5l15.1,46.5H564l-39.6,28.8L539.7,421z
				 M500.1,382.5l24.6,17.9l-9.4-29l24.6-17.9h-30.4l-9.4-29l-9.4,29h-30.4l24.6,17.9l-9.4,29L500.1,382.5z"/>
			<polygon class="st3" points="500.1,324.5 500.1,382.5 475.4,400.4 484.8,371.4 460.2,353.5 490.6,353.5 			"/>
		</g>
		<g>
			<polygon class="st1" points="390.5,389.9 398.7,415.1 425.1,415.1 403.7,430.6 411.9,455.8 390.5,440.2 369.1,455.8 377.2,430.6 
				355.8,415.1 382.3,415.1 			"/>
			<path class="st4" d="M419.4,466.1l-28.9-21l-28.9,21l11-34l-28.9-21h35.7l11-34l11,34h35.7l-28.9,21L419.4,466.1z M367.9,419
				l13.9,10.1l-5.3,16.4l13.9-10.1l13.9,10.1l-5.3-16.4l13.9-10.1h-17.2l-5.3-16.4l-5.3,16.4H367.9z"/>
			<polygon class="st3" points="390.5,402.6 390.5,435.4 376.5,445.5 381.9,429.1 367.9,419 385.1,419 			"/>
		</g>
		<g>
			<polygon class="st1" points="609.6,389.9 617.8,415.1 644.3,415.1 622.9,430.6 631.1,455.8 609.6,440.2 588.2,455.8 596.4,430.6 
				575,415.1 601.5,415.1 			"/>
			<path class="st4" d="M580.7,466.1l11-34l-28.9-21h35.7l11-34l11,34h35.9l-28.9,21l11,34l-28.9-21L580.7,466.1z M609.6,435.4
				l13.9,10.1l-5.3-16.4l13.9-10.1h-17.2l-5.3-16.4l-5.3,16.4h-17.2l13.9,10.1l-5.3,16.4L609.6,435.4z"/>
			<polygon class="st3" points="609.6,402.6 609.6,435.4 623.6,445.5 618.3,429.1 632.2,419 615,419 			"/>
		</g>
	</g>
</g>
</svg>
