<?xml version="1.0" encoding="utf-8"?>
<!-- Generator: Adobe Illustrator 26.2.1, SVG Export Plug-In . SVG Version: 6.00 Build 0)  -->
<svg version="1.1" id="Layer_1" xmlns="http://www.w3.org/2000/svg" xmlns:xlink="http://www.w3.org/1999/xlink" x="0px" y="0px"
	 viewBox="0 0 339.4 312.4" style="enable-background:new 0 0 339.4 312.4;" xml:space="preserve">
<style type="text/css">
	.st0{fill:#673AB7;}
	.st1{fill:#FFFFFF;}
	.st2{opacity:0.5;fill:url(#SVGID_1_);enable-background:new    ;}
	.st3{opacity:0.5;fill:url(#SVGID_00000167373117029530526910000017423719613233024388_);enable-background:new    ;}
	.st4{opacity:0.5;fill:url(#SVGID_00000059996925705827375780000014326803315314999183_);enable-background:new    ;}
	.st5{opacity:0.5;fill:url(#SVGID_00000134238506966954185810000002891990534746432134_);enable-background:new    ;}
	.st6{fill:#CEC0E8;}
	.st7{fill:#C2B0E2;}
	.st8{opacity:0.5;}
	.st9{fill:#FAFAFA;}
	.st10{clip-path:url(#SVGID_00000179640119239078200520000003633279656605825947_);}
	.st11{fill:url(#SVGID_00000132790200017972305110000017886824002394723728_);}
</style>
<g>
	<g id="a">
		<polygon class="st0" points="240.8,33.5 98.7,33.5 27.6,156.2 98.7,278.9 240.8,278.9 311.8,156.2 		"/>
	</g>
	<g id="b">
		<g>
			<path class="st1" d="M113.5,178.6l-4.5,23.7l-0.3,1.5c0,0.2,0,0.4,0,0.6c0,0,0,0.1,0,0.1c0.2,2.8,2.8,4.9,5.6,4.7
				c2.2-0.2,4-1.8,4.6-3.9l3.9-18.9l0.8-4.6l8.3-3.2l-5.4-9.3l-12.1,4.8L113.5,178.6L113.5,178.6z"/>
			<path class="st1" d="M228.8,178.4l4.5,23.7l0.3,1.5c0,0.2,0,0.4,0,0.6c0,0,0,0.1,0,0.1c-0.2,2.8-2.8,4.9-5.6,4.7
				c-2.2-0.2-4-1.8-4.6-3.9l-3.9-18.9l-0.8-4.6l-8.3-3.2l5.4-9.3l12.1,4.8L228.8,178.4L228.8,178.4z"/>
			<path class="st1" d="M142,154.8c-2.5,3.1-4.9,6.2-7.4,9.3l-20.3-6.1l-6.4-22.9l-0.4-1.4c0-0.2,0-0.4,0-0.6c0,0,0-0.1,0-0.1
				c0-2.8,2.3-5.1,5.1-5.1c2.2,0,4.1,1.4,4.8,3.4l5.4,18.2L142,154.8L142,154.8z"/>
			<path class="st1" d="M200.1,154.8c2.5,3.1,4.9,6.2,7.4,9.3l20.3-6.1l6.4-22.9l0.4-1.4c0-0.2,0-0.4,0-0.6c0,0,0-0.1,0-0.1
				c0-2.8-2.3-5.1-5.1-5.1c-2.2,0-4.1,1.4-4.8,3.4l-5.4,18.2L200.1,154.8L200.1,154.8z"/>
			
				<radialGradient id="SVGID_1_" cx="-2225.5762" cy="750.4592" r="19.95" gradientTransform="matrix(-1.55 0 0 1.52 -3309.78 -973.18)" gradientUnits="userSpaceOnUse">
				<stop  offset="0" style="stop-color:#673AB7"/>
				<stop  offset="0" style="stop-color:#673AB7;stop-opacity:0.99"/>
				<stop  offset="0" style="stop-color:#673AB7;stop-opacity:0.95"/>
				<stop  offset="0" style="stop-color:#673AB7;stop-opacity:0.87"/>
				<stop  offset="0" style="stop-color:#673AB7;stop-opacity:0.77"/>
				<stop  offset="0" style="stop-color:#673AB7;stop-opacity:0.7"/>
				<stop  offset="0.14" style="stop-color:#7248BC;stop-opacity:0.65"/>
				<stop  offset="0.38" style="stop-color:#673AB7;stop-opacity:0.51"/>
				<stop  offset="0.68" style="stop-color:#673AB7;stop-opacity:0.28"/>
				<stop  offset="1" style="stop-color:#673AB7;stop-opacity:0"/>
			</radialGradient>
			<ellipse class="st2" cx="138" cy="166.6" rx="30.9" ry="30.2"/>
			
				<radialGradient id="SVGID_00000065771249214998582690000009259490915448515211_" cx="-2266.2666" cy="750.4592" r="19.95" gradientTransform="matrix(-1.55 0 0 1.52 -3309.78 -973.18)" gradientUnits="userSpaceOnUse">
				<stop  offset="0" style="stop-color:#673AB7"/>
				<stop  offset="0" style="stop-color:#673AB7;stop-opacity:0.99"/>
				<stop  offset="0" style="stop-color:#673AB7;stop-opacity:0.95"/>
				<stop  offset="0" style="stop-color:#673AB7;stop-opacity:0.87"/>
				<stop  offset="0" style="stop-color:#673AB7;stop-opacity:0.77"/>
				<stop  offset="0" style="stop-color:#673AB7;stop-opacity:0.7"/>
				<stop  offset="0.14" style="stop-color:#7248BC;stop-opacity:0.65"/>
				<stop  offset="0.38" style="stop-color:#673AB7;stop-opacity:0.51"/>
				<stop  offset="0.68" style="stop-color:#673AB7;stop-opacity:0.28"/>
				<stop  offset="1" style="stop-color:#673AB7;stop-opacity:0"/>
			</radialGradient>
			
				<ellipse style="opacity:0.5;fill:url(#SVGID_00000065771249214998582690000009259490915448515211_);enable-background:new    ;" cx="201.1" cy="166.6" rx="30.9" ry="30.2"/>
			<path class="st1" d="M156.7,110.9c0,0-1.4-1.7-3.3-2.6c-1.9-0.9-3.7-1.8-6.4-2.8c-2-0.8-4.3-1.3-5.4-2c-1.6-0.8-2.7-2.4-2.7-4.3
				c0-2.3,1.6-4.2,3.8-4.7l0,0l0,0c0,0,4-1.4,15.2,5.4c0,0,5.8,3.6,7.2,5c1.4,1.5,1.8,2.1,2.4,2.7
				C168.1,108.3,156.6,110.9,156.7,110.9L156.7,110.9z"/>
			<path class="st1" d="M172.7,108C172.7,108,172.7,108,172.7,108c0.2,0.6,5.4,1.9,10.9,3.2c0,0,1.4-1.7,3.3-2.6
				c1.9-0.9,3.7-1.8,6.4-2.8c2-0.8,4.3-1.3,5.4-2c1.6-0.8,2.7-2.4,2.7-4.3c0-2.3-1.6-4.2-3.8-4.7l0,0l0,0c-0.5-0.1-1.2-0.2-2.1-0.2
				c-0.7,0-1.4,0.2-2.2,0.4c-1.4,0.4-1.9,0.7-4.4,1.7c-1.3,0.5-1.3,0.5-2.2,0.8c-1.2,0.5-2.1,1-2.8,1.3c-0.8,0.4-1.9,1-3.2,1.8
				c-1.3,0.8-2.2,1.4-3.4,2.4c-0.9,0.7-1,1-2.4,2.3c-1,1-1.9,1.8-2.5,2.4L172.7,108L172.7,108z"/>
			
				<radialGradient id="SVGID_00000096025526990227922500000017804070716764065206_" cx="-2246.0923" cy="722.3833" r="19.95" gradientTransform="matrix(-1.55 0 0 1.52 -3309.78 -973.18)" gradientUnits="userSpaceOnUse">
				<stop  offset="0" style="stop-color:#673AB7"/>
				<stop  offset="0" style="stop-color:#673AB7;stop-opacity:0.99"/>
				<stop  offset="0" style="stop-color:#673AB7;stop-opacity:0.95"/>
				<stop  offset="0" style="stop-color:#673AB7;stop-opacity:0.87"/>
				<stop  offset="0" style="stop-color:#673AB7;stop-opacity:0.77"/>
				<stop  offset="0" style="stop-color:#673AB7;stop-opacity:0.7"/>
				<stop  offset="0.14" style="stop-color:#7248BC;stop-opacity:0.65"/>
				<stop  offset="0.38" style="stop-color:#673AB7;stop-opacity:0.51"/>
				<stop  offset="0.68" style="stop-color:#673AB7;stop-opacity:0.28"/>
				<stop  offset="1" style="stop-color:#673AB7;stop-opacity:0"/>
			</radialGradient>
			
				<ellipse style="opacity:0.5;fill:url(#SVGID_00000096025526990227922500000017804070716764065206_);enable-background:new    ;" cx="169.9" cy="123.9" rx="30.9" ry="30.2"/>
			<path class="st1" d="M196.6,132.7c0,2.2-0.3,4.3-0.8,6.3l-4.6-2.3c-14,0.1-28.1,0.3-42.1,0.4l-5.5,2.4c-0.6-2.2-0.9-4.5-0.9-6.8
				c0-14.9,12.1-26.9,26.9-26.9S196.6,117.9,196.6,132.7L196.6,132.7z"/>
			
				<radialGradient id="SVGID_00000151524468596042236470000009196991907019207858_" cx="-2246.3979" cy="739.7325" r="21.4633" gradientTransform="matrix(-1.55 0 0 1.52 -3309.78 -973.18)" gradientUnits="userSpaceOnUse">
				<stop  offset="0" style="stop-color:#673AB7"/>
				<stop  offset="0" style="stop-color:#673AB7;stop-opacity:0.99"/>
				<stop  offset="0" style="stop-color:#673AB7;stop-opacity:0.95"/>
				<stop  offset="0" style="stop-color:#673AB7;stop-opacity:0.87"/>
				<stop  offset="0" style="stop-color:#673AB7;stop-opacity:0.77"/>
				<stop  offset="0" style="stop-color:#673AB7;stop-opacity:0.7"/>
				<stop  offset="0.14" style="stop-color:#7248BC;stop-opacity:0.65"/>
				<stop  offset="1" style="stop-color:#673AB7;stop-opacity:0"/>
			</radialGradient>
			
				<ellipse style="opacity:0.5;fill:url(#SVGID_00000151524468596042236470000009196991907019207858_);enable-background:new    ;" cx="170.2" cy="150.2" rx="33.2" ry="32.5"/>
			<path class="st1" d="M217.4,172.8c0,2.5-0.2,5-0.6,7.4c-0.4,2.8-2.7,5-5.5,5.3c-3.6,0.3-6.9,2.3-8.8,5.7
				c-1.9,3.4-1.9,7.4-0.3,10.6c1.3,2.5,0.5,5.6-1.6,7.4c-3.8,3.3-8.2,5.9-12.9,7.9c-2.8,1.1-5.8,0.1-7.6-2.3
				c-2.1-2.9-5.5-4.7-9.3-4.7c-3.8,0.1-7.2,2-9.1,5c-1.7,2.5-4.7,3.6-7.5,2.6c-5.2-1.9-10-4.7-14.1-8.1c-2.2-1.8-3-4.9-1.7-7.4
				c1.6-3.2,1.6-7.2-0.4-10.6c-1.9-3.3-5.3-5.3-8.9-5.6c-2.8-0.2-5.1-2.4-5.5-5.2c-0.4-2.5-0.6-5.1-0.6-7.8c0-3.1,0.3-6.1,0.8-9
				s2.8-4.9,5.7-5.1c3.6-0.2,7-2.1,9-5.4c2-3.3,2.1-7.3,0.6-10.6c-1.2-2.6-0.3-5.6,1.9-7.3c3.7-3,7.9-5.4,12.5-7.1
				c2.8-1.1,5.8,0,7.5,2.5c2,2.9,5.4,4.8,9.3,4.8s7.2-1.9,9.2-4.8c1.7-2.4,4.8-3.5,7.6-2.5c4.9,1.9,9.4,4.6,13.4,7.9
				c2.2,1.8,2.9,4.9,1.7,7.4c-1.6,3.3-1.6,7.2,0.3,10.6c1.9,3.3,5.3,5.3,8.9,5.6c2.8,0.2,5.1,2.4,5.5,5.2
				C217.2,167.6,217.4,170.2,217.4,172.8L217.4,172.8z"/>
			<path class="st6" d="M160.3,166.6c2.1-3.6,5.9-5.7,9.8-5.7v22.5c-1.9,0-3.8-0.5-5.5-1.5C159.2,178.9,157.2,172,160.3,166.6
				L160.3,166.6z"/>
			<path class="st7" d="M170.1,183.4v-22.5c1.9,0,3.8,0.5,5.6,1.5c5.4,3.1,7.3,9.9,4.3,15.4C177.8,181.4,174,183.5,170.1,183.4
				L170.1,183.4z"/>
		</g>
	</g>
	<g id="ab">
		<g>
			<g class="st8">
				<path class="st9" d="M129.1,80.6c2.3-2.4,2.9-6.1,1.1-9.1c-2.1-3.7-6.8-4.9-10.5-2.8s-4.9,6.8-2.8,10.5c1.7,3,5.2,4.4,8.5,3.6
					c1.2,2,2.4,4.1,3.5,6.1c1.2-0.7,2.5-1.4,3.7-2.2C131.5,84.6,130.3,82.6,129.1,80.6z M125.1,77.9c-1.5,0.9-3.4,0.3-4.2-1.2
					s-0.3-3.4,1.1-4.3c1.5-0.9,3.4-0.3,4.2,1.2S126.6,77.1,125.1,77.9z"/>
				<path class="st9" d="M84.9,153.4c-0.9-3.2-3.9-5.6-7.4-5.6c-4.3,0-7.8,3.4-7.8,7.7c0,4.3,3.4,7.8,7.7,7.8c3.5,0,6.5-2.3,7.5-5.5
					c2.4,0,4.7,0,7.1,0c0-1.4,0-2.9,0-4.3C89.6,153.5,87.3,153.4,84.9,153.4L84.9,153.4z M77.4,158.7c-1.7,0-3.1-1.4-3.1-3.1
					c0-1.7,1.4-3.1,3.1-3.1c1.7,0,3.1,1.4,3.1,3.1C80.5,157.3,79.1,158.7,77.4,158.7z"/>
				<path class="st9" d="M125.7,228.2c-3.3-0.7-6.8,0.7-8.5,3.8c-2.1,3.7-0.7,8.5,3,10.5c3.7,2.1,8.5,0.7,10.5-3
					c1.7-3.1,1.1-6.8-1.3-9.2c1.1-2.1,2.3-4.2,3.4-6.2c-1.3-0.7-2.5-1.4-3.8-2.1C127.9,224.1,126.8,226.2,125.7,228.2L125.7,228.2z
					 M126.7,237.3c-0.8,1.5-2.7,2-4.2,1.2c-1.5-0.8-2-2.7-1.2-4.2s2.7-2,4.2-1.2C126.9,233.9,127.5,235.8,126.7,237.3z"/>
				<path class="st9" d="M211,230.2c-2.3,2.4-2.9,6.2-1.1,9.2c2.1,3.7,6.9,5,10.6,2.8c3.7-2.1,5-6.9,2.8-10.6
					c-1.8-3-5.3-4.4-8.6-3.6c-1.2-2-2.4-4.1-3.6-6.1c-1.2,0.7-2.5,1.5-3.7,2.2C208.6,226.2,209.8,228.2,211,230.2L211,230.2z
					 M219.3,234c0.9,1.5,0.4,3.4-1.1,4.2s-3.4,0.4-4.2-1.1s-0.4-3.4,1.1-4.2S218.5,232.6,219.3,234z"/>
				<path class="st9" d="M262.8,147.5c-3.5,0-6.5,2.3-7.5,5.6l-6.7,0.1c0,1.4,0.1,2.8,0.1,4.2c2.2,0,4.4,0,6.6,0
					c0.9,3.2,3.9,5.6,7.4,5.6c4.3,0,7.8-3.4,7.8-7.7S267,147.5,262.8,147.5L262.8,147.5z M265.8,155.3c0,1.7-1.4,3.1-3.1,3.1
					c-1.7,0-3.1-1.4-3.1-3.1c0-1.7,1.4-3.1,3.1-3.1C264.4,152.2,265.8,153.6,265.8,155.3z"/>
				<path class="st9" d="M220.1,68.4c-3.6-2.1-8.3-0.9-10.4,2.8c-1.7,3-1.2,6.7,1.1,9l-3.6,6.3l3.7,2.1l3.6-6.3
					c3.2,0.8,6.7-0.6,8.4-3.6C225,75.2,223.7,70.5,220.1,68.4L220.1,68.4z M219.1,76.7c-0.9,1.6-3,2.1-4.6,1.2
					c-1.6-0.9-2.1-3-1.2-4.5s3-2.1,4.6-1.2C219.5,73.1,220.1,75.1,219.1,76.7z"/>
			</g>
			<g>
				<path class="st9" d="M177.6,62.8c0-4.2-3.5-7.7-7.7-7.7s-7.7,3.5-7.7,7.7c0,3.5,2.4,6.4,5.5,7.3l0,7.3l4.3,0l0-7.3
					C175.2,69.2,177.6,66.3,177.6,62.8L177.6,62.8z M169.9,66.2c-1.9,0-3.4-1.5-3.4-3.3s1.5-3.4,3.4-3.4s3.4,1.5,3.4,3.3
					C173.2,64.6,171.7,66.1,169.9,66.2z"/>
				<path class="st9" d="M97.3,111.2c0.8-3.2-0.5-6.7-3.5-8.5c-3.6-2.2-8.4-1-10.5,2.6c-2.2,3.6-1,8.4,2.6,10.5
					c3,1.8,6.7,1.3,9.2-0.9c2,1.2,4,2.4,6.1,3.6c0.7-1.2,1.4-2.5,2.2-3.7C101.3,113.6,99.3,112.4,97.3,111.2L97.3,111.2z
					 M92.4,110.8c-0.9,1.5-2.8,1.9-4.2,1.1s-1.9-2.8-1.1-4.3c0.9-1.5,2.8-1.9,4.2-1.1S93.3,109.3,92.4,110.8z"/>
				<path class="st9" d="M95.2,196.2c-2.4-2.3-6.2-2.9-9.2-1.1c-3.7,2.1-5,6.9-2.9,10.6c2.1,3.7,6.9,5,10.6,2.9
					c3.1-1.8,4.5-5.3,3.7-8.5c2.1-1.2,4.1-2.4,6.1-3.6c-0.7-1.2-1.5-2.5-2.2-3.7C99.3,193.9,97.3,195.1,95.2,196.2z M91.4,204.6
					c-1.5,0.9-3.4,0.3-4.2-1.1c-0.8-1.5-0.3-3.4,1.2-4.2c1.5-0.9,3.4-0.3,4.2,1.1C93.4,201.8,92.9,203.7,91.4,204.6z"/>
				<path class="st9" d="M168,240.6c-3.2,1-5.6,3.9-5.5,7.5c0,4.3,3.5,7.7,7.8,7.7c4.3,0,7.7-3.5,7.7-7.8c0-3.5-2.4-6.5-5.6-7.4
					c0-2.4-0.1-4.7-0.1-7.1c-1.4,0-2.9,0.1-4.3,0.1C168,235.9,168,238.2,168,240.6L168,240.6z M173.4,248c0,1.7-1.4,3.1-3.1,3.1
					c-1.7,0-3.1-1.4-3.1-3.1s1.4-3.1,3.1-3.1C172,244.9,173.4,246.3,173.4,248z"/>
				<path class="st9" d="M254.4,195c-3-1.8-6.8-1.3-9.2,1l-5.8-3.3c-0.7,1.2-1.4,2.5-2.1,3.7c1.9,1.1,3.8,2.2,5.6,3.4
					c-0.8,3.2,0.5,6.8,3.5,8.6c3.7,2.2,8.4,1,10.6-2.7C259.2,201.9,258,197.2,254.4,195L254.4,195z M253,203.2
					c-0.9,1.5-2.8,1.9-4.2,1.1c-1.5-0.9-1.9-2.8-1.1-4.2c0.9-1.5,2.8-1.9,4.3-1.1C253.4,199.8,253.9,201.7,253,203.2L253,203.2z"/>
				<path class="st9" d="M250.2,101.2c-4.3,0-7.7,3.5-7.7,7.7c0,0.6,0.1,1.2,0.2,1.8l-5.8,3.4l2.2,3.8l5.8-3.4
					c1.4,1.3,3.3,2.1,5.3,2.1c4.3,0,7.7-3.5,7.7-7.7S254.5,101.2,250.2,101.2L250.2,101.2z M250.2,111.9c-1.7,0-3-1.3-3-3s1.4-3,3-3
					s3,1.3,3,3S251.8,111.9,250.2,111.9z"/>
			</g>
		</g>
	</g>
</g>
<g>
	<g>
		<defs>
			<path id="SVGID_00000144325289901829124140000003133635146856365980_" d="M194.1,137.6h-23.9v69.2h23.9c3.4,0,6.2-2.2,6.2-4.9
				v-59.3C200.3,139.8,197.5,137.6,194.1,137.6L194.1,137.6z"/>
		</defs>
		<clipPath id="SVGID_00000041280149700473655910000001382012087585305770_">
			<use xlink:href="#SVGID_00000144325289901829124140000003133635146856365980_"  style="overflow:visible;"/>
		</clipPath>
		<g style="clip-path:url(#SVGID_00000041280149700473655910000001382012087585305770_);">
			
				<radialGradient id="SVGID_00000120527847764077399010000004259434453168155808_" cx="-115.2948" cy="319.7614" r="19.95" gradientTransform="matrix(1.55 0 0 -1.34 346.58 601.9361)" gradientUnits="userSpaceOnUse">
				<stop  offset="0" style="stop-color:#673AB7"/>
				<stop  offset="0" style="stop-color:#673AB7;stop-opacity:0.99"/>
				<stop  offset="0" style="stop-color:#673AB7;stop-opacity:0.95"/>
				<stop  offset="0" style="stop-color:#673AB7;stop-opacity:0.87"/>
				<stop  offset="0" style="stop-color:#673AB7;stop-opacity:0.77"/>
				<stop  offset="0" style="stop-color:#673AB7;stop-opacity:0.7"/>
				<stop  offset="0.14" style="stop-color:#7248BC;stop-opacity:0.65"/>
				<stop  offset="0.38" style="stop-color:#9070CA;stop-opacity:0.51"/>
				<stop  offset="0.68" style="stop-color:#C2B0E2;stop-opacity:0.28"/>
				<stop  offset="1" style="stop-color:#FFFFFF;stop-opacity:0"/>
			</radialGradient>
			
				<ellipse style="fill:url(#SVGID_00000120527847764077399010000004259434453168155808_);" cx="169.3" cy="173.2" rx="30.9" ry="26.7"/>
		</g>
	</g>
</g>
</svg>
