<?xml version="1.0" encoding="utf-8"?>
<!-- Generator: Adobe Illustrator 26.2.1, SVG Export Plug-In . SVG Version: 6.00 Build 0)  -->
<svg version="1.1" id="Layer_1" xmlns="http://www.w3.org/2000/svg" xmlns:xlink="http://www.w3.org/1999/xlink" x="0px" y="0px"
	 viewBox="0 0 339.4 312.4" style="enable-background:new 0 0 339.4 312.4;" xml:space="preserve">
<style type="text/css">
	.st0{fill:#673AB7;}
	.st1{fill:#FFFFFF;}
	.st2{opacity:0.5;fill:url(#SVGID_1_);enable-background:new    ;}
	.st3{opacity:0.5;fill:url(#SVGID_00000178907723247373036480000009590996955383699880_);enable-background:new    ;}
	.st4{opacity:0.5;fill:url(#SVGID_00000139267261662669779150000014130810529400309411_);enable-background:new    ;}
	.st5{opacity:0.5;fill:url(#SVGID_00000117656949408055891560000007040004108424662185_);enable-background:new    ;}
	.st6{clip-path:url(#SVGID_00000172440387895567306190000000212085778667182519_);}
	.st7{opacity:0.5;fill:url(#SVGID_00000175320084800325845590000010357206134738343824_);enable-background:new    ;}
	.st8{fill:#C2B0E2;}
	.st9{opacity:0.5;}
	.st10{fill:#FAFAFA;}
</style>
<g>
	<g id="a">
		<polygon class="st0" points="240.8,33.5 98.7,33.5 27.6,156.2 98.7,278.9 240.8,278.9 311.8,156.2 		"/>
	</g>
	<g id="b">
		<g>
			<path class="st1" d="M172.4,107.1C172.4,107.1,172.4,107.1,172.4,107.1c0.2,0.6,5.4,1.9,10.9,3.2c0,0,1.4-1.7,3.3-2.6
				c1.9-0.9,3.7-1.8,6.4-2.8c2-0.8,4.3-1.3,5.4-2c1.6-0.8,2.7-2.4,2.7-4.3c0-2.3-1.6-4.2-3.8-4.7l0,0l0,0c-0.5-0.1-1.2-0.2-2.1-0.2
				c-0.7,0-1.4,0.2-2.2,0.4c-1.4,0.4-1.9,0.7-4.4,1.7c-1.3,0.5-1.3,0.5-2.2,0.8c-1.2,0.5-2.1,1-2.8,1.3c-0.8,0.4-1.9,1-3.2,1.8
				c-1.3,0.8-2.2,1.4-3.4,2.4c-0.9,0.7-1,1-2.4,2.3c-1,1-1.9,1.8-2.5,2.4L172.4,107.1L172.4,107.1z"/>
			<path class="st1" d="M112.5,178l-4.5,23.7l-0.3,1.5c0,0.2,0,0.4,0,0.6c0,0,0,0.1,0,0.1c0.2,2.8,2.8,4.9,5.6,4.7
				c2.2-0.2,4-1.8,4.6-3.9l3.9-18.9l0.8-4.6l8.3-3.2l-5.4-9.3l-12.1,4.8L112.5,178L112.5,178z"/>
			<path class="st1" d="M227.6,177.4l4.5,23.7l0.3,1.5c0,0.2,0,0.4,0,0.6c0,0,0,0.1,0,0.1c-0.2,2.8-2.8,4.9-5.6,4.7
				c-2.2-0.2-4-1.8-4.6-3.9l-3.9-18.9l-0.8-4.6l-8.3-3.2l5.4-9.3l12.1,4.8L227.6,177.4L227.6,177.4z"/>
			<path class="st1" d="M145.4,155.7l-8.7,9c-7.8-2.4-15.6-4.7-23.3-7.1l-6.4-22.9l-0.4-1.4c0-0.2,0-0.4,0-0.6c0,0,0-0.1,0-0.1
				c0-2.8,2.3-5.1,5.1-5.1c2.2,0,4.1,1.4,4.8,3.4l5.4,18.2C129.6,151.3,137.5,153.5,145.4,155.7L145.4,155.7z"/>
			<path class="st1" d="M194.4,155.8c3.5,2.7,7,5.4,10.4,8.1l22-6.4l6.4-22.9l0.4-1.4c0-0.2,0-0.4,0-0.6c0,0,0-0.1,0-0.1
				c0-2.8-2.3-5.1-5.1-5.1c-2.2,0-4.1,1.4-4.8,3.4l-5.4,18.2C210.4,151.3,202.4,153.6,194.4,155.8L194.4,155.8z"/>
			<path class="st1" d="M156.5,110.2c0,0-1.4-1.7-3.3-2.6c-1.9-0.9-3.7-1.8-6.4-2.8c-2-0.8-4.3-1.3-5.4-2c-1.6-0.8-2.7-2.4-2.7-4.3
				c0-2.3,1.6-4.2,3.8-4.7l0,0l0,0c0,0,4-1.4,15.2,5.4c0,0,5.8,3.6,7.2,5c1.4,1.5,1.8,2.1,2.4,2.7
				C168,107.6,156.5,110.2,156.5,110.2L156.5,110.2z"/>
			
				<radialGradient id="SVGID_1_" cx="-2224.3245" cy="756.4203" r="19.95" gradientTransform="matrix(-1.55 0 0 1.52 -3309.78 -973.18)" gradientUnits="userSpaceOnUse">
				<stop  offset="0" style="stop-color:#673AB7"/>
				<stop  offset="0" style="stop-color:#673AB7;stop-opacity:0.99"/>
				<stop  offset="0" style="stop-color:#673AB7;stop-opacity:0.95"/>
				<stop  offset="0" style="stop-color:#673AB7;stop-opacity:0.87"/>
				<stop  offset="0" style="stop-color:#673AB7;stop-opacity:0.77"/>
				<stop  offset="0" style="stop-color:#673AB7;stop-opacity:0.7"/>
				<stop  offset="0.14" style="stop-color:#7248BC;stop-opacity:0.65"/>
				<stop  offset="0.38" style="stop-color:#9070CA;stop-opacity:0.51"/>
				<stop  offset="0.68" style="stop-color:#C2B0E2;stop-opacity:0.28"/>
				<stop  offset="1" style="stop-color:#FFFFFF;stop-opacity:0"/>
			</radialGradient>
			<ellipse class="st2" cx="136.1" cy="175.7" rx="30.9" ry="30.2"/>
			
				<radialGradient id="SVGID_00000049938076177784978280000000897273631297161660_" cx="-2265.0149" cy="756.4203" r="19.95" gradientTransform="matrix(-1.55 0 0 1.52 -3309.78 -973.18)" gradientUnits="userSpaceOnUse">
				<stop  offset="0" style="stop-color:#673AB7"/>
				<stop  offset="0" style="stop-color:#673AB7;stop-opacity:0.99"/>
				<stop  offset="0" style="stop-color:#673AB7;stop-opacity:0.95"/>
				<stop  offset="0" style="stop-color:#673AB7;stop-opacity:0.87"/>
				<stop  offset="0" style="stop-color:#673AB7;stop-opacity:0.77"/>
				<stop  offset="0" style="stop-color:#673AB7;stop-opacity:0.7"/>
				<stop  offset="0.14" style="stop-color:#7248BC;stop-opacity:0.65"/>
				<stop  offset="0.38" style="stop-color:#673AB7;stop-opacity:0.51"/>
				<stop  offset="0.68" style="stop-color:#673AB7;stop-opacity:0.28"/>
				<stop  offset="1" style="stop-color:#673AB7;stop-opacity:0"/>
			</radialGradient>
			
				<ellipse style="opacity:0.5;fill:url(#SVGID_00000049938076177784978280000000897273631297161660_);enable-background:new    ;" cx="199.2" cy="175.7" rx="30.9" ry="30.2"/>
			
				<radialGradient id="SVGID_00000077310390402294550430000007485980441279494029_" cx="-2246.0923" cy="722.3833" r="19.95" gradientTransform="matrix(-1.55 0 0 1.52 -3309.78 -973.18)" gradientUnits="userSpaceOnUse">
				<stop  offset="0" style="stop-color:#673AB7"/>
				<stop  offset="0" style="stop-color:#673AB7;stop-opacity:0.99"/>
				<stop  offset="0" style="stop-color:#673AB7;stop-opacity:0.95"/>
				<stop  offset="0" style="stop-color:#673AB7;stop-opacity:0.87"/>
				<stop  offset="0" style="stop-color:#673AB7;stop-opacity:0.77"/>
				<stop  offset="0" style="stop-color:#673AB7;stop-opacity:0.7"/>
				<stop  offset="0.14" style="stop-color:#7248BC;stop-opacity:0.65"/>
				<stop  offset="0.38" style="stop-color:#673AB7;stop-opacity:0.51"/>
				<stop  offset="0.68" style="stop-color:#673AB7;stop-opacity:0.28"/>
				<stop  offset="1" style="stop-color:#673AB7;stop-opacity:0"/>
			</radialGradient>
			
				<ellipse style="opacity:0.5;fill:url(#SVGID_00000077310390402294550430000007485980441279494029_);enable-background:new    ;" cx="169.9" cy="123.9" rx="30.9" ry="30.2"/>
			<ellipse class="st1" cx="169.7" cy="132.2" rx="27.1" ry="26.7"/>
			
				<radialGradient id="SVGID_00000148651711718909101300000012854599394512382899_" cx="-2246.0923" cy="743.2163" r="19.95" gradientTransform="matrix(-1.55 0 0 1.52 -3309.78 -973.18)" gradientUnits="userSpaceOnUse">
				<stop  offset="0" style="stop-color:#673AB7"/>
				<stop  offset="0" style="stop-color:#673AB7;stop-opacity:0.99"/>
				<stop  offset="0" style="stop-color:#673AB7;stop-opacity:0.95"/>
				<stop  offset="0" style="stop-color:#673AB7;stop-opacity:0.87"/>
				<stop  offset="0" style="stop-color:#673AB7;stop-opacity:0.77"/>
				<stop  offset="0" style="stop-color:#673AB7;stop-opacity:0.7"/>
				<stop  offset="0.14" style="stop-color:#7248BC;stop-opacity:0.65"/>
				<stop  offset="0.38" style="stop-color:#673AB7;stop-opacity:0.51"/>
				<stop  offset="0.68" style="stop-color:#673AB7;stop-opacity:0.28"/>
				<stop  offset="1" style="stop-color:#673AB7;stop-opacity:0"/>
			</radialGradient>
			
				<ellipse style="opacity:0.5;fill:url(#SVGID_00000148651711718909101300000012854599394512382899_);enable-background:new    ;" cx="169.9" cy="155.6" rx="30.9" ry="30.2"/>
			<path class="st1" d="M199.2,155.8c-0.8,0-1.7,0.1-2.5,0.1c-1.2-13.7-12.8-24.4-27-24.4s-25.7,10.7-27,24.3h0c-0.3,0-0.6,0-0.9,0
				c-12.4,0-22.5,10.1-22.5,22.5c0,6.2,2.5,11.9,6.6,15.9c4.3,4.3,10.2,6.6,16.3,6.6h5.7c2.1,10.2,11.2,17.9,22.1,17.9
				s19.9-7.7,22.1-17.9h8.3c12-0.5,21.5-10.4,21.5-22.5S211.6,155.8,199.2,155.8L199.2,155.8z"/>
			<g>
				<defs>
					<rect id="SVGID_00000042712141345026588940000016695767665600328586_" x="170" y="131.5" width="37.1" height="87.2"/>
				</defs>
				<clipPath id="SVGID_00000149342960529856942960000000015387713190856894_">
					<use xlink:href="#SVGID_00000042712141345026588940000016695767665600328586_"  style="overflow:visible;"/>
				</clipPath>
				<g style="clip-path:url(#SVGID_00000149342960529856942960000000015387713190856894_);">
					
						<radialGradient id="SVGID_00000091734781363630845790000003494196628779066039_" cx="-191.4221" cy="312.3028" r="19.95" gradientTransform="matrix(1.45 0 0 -1.69 444.57 704.2501)" gradientUnits="userSpaceOnUse">
						<stop  offset="0" style="stop-color:#673AB7"/>
						<stop  offset="0" style="stop-color:#673AB7;stop-opacity:0.99"/>
						<stop  offset="0" style="stop-color:#673AB7;stop-opacity:0.95"/>
						<stop  offset="0" style="stop-color:#673AB7;stop-opacity:0.87"/>
						<stop  offset="0" style="stop-color:#673AB7;stop-opacity:0.77"/>
						<stop  offset="0" style="stop-color:#673AB7;stop-opacity:0.7"/>
						<stop  offset="0.14" style="stop-color:#7248BC;stop-opacity:0.65"/>
						<stop  offset="0.38" style="stop-color:#9070CA;stop-opacity:0.51"/>
						<stop  offset="0.68" style="stop-color:#C2B0E2;stop-opacity:0.28"/>
						<stop  offset="1" style="stop-color:#FFFFFF;stop-opacity:0"/>
					</radialGradient>
					
						<ellipse style="opacity:0.5;fill:url(#SVGID_00000091734781363630845790000003494196628779066039_);enable-background:new    ;" cx="168.1" cy="176.1" rx="28.9" ry="33.7"/>
				</g>
			</g>
			<path class="st8" d="M182.8,177h-5.7v13.9c0,0.2-0.2,0.4-0.4,0.4H170v-32.4l13.6,16.5C184.1,176,183.6,177,182.8,177L182.8,177z"
				/>
			<g class="st9">
				<path class="st8" d="M170,158.9v32.4h-6.7c-0.3,0-0.5-0.2-0.5-0.5V177l-5.1,0c-0.8,0-1.2-0.9-0.7-1.5L170,158.9L170,158.9z"/>
			</g>
		</g>
	</g>
	<g id="ab">
		<g>
			<g class="st9">
				<path class="st10" d="M129.1,80.6c2.3-2.4,2.9-6.1,1.1-9.1c-2.1-3.7-6.8-4.9-10.5-2.8s-4.9,6.8-2.8,10.5c1.7,3,5.2,4.4,8.5,3.6
					c1.2,2,2.4,4.1,3.5,6.1c1.2-0.7,2.5-1.4,3.7-2.2C131.5,84.6,130.3,82.6,129.1,80.6z M125.1,77.9c-1.5,0.9-3.4,0.3-4.2-1.2
					s-0.3-3.4,1.1-4.3c1.5-0.9,3.4-0.3,4.2,1.2S126.6,77.1,125.1,77.9z"/>
				<path class="st10" d="M84.9,153.4c-0.9-3.2-3.9-5.6-7.4-5.6c-4.3,0-7.8,3.4-7.8,7.7c0,4.3,3.4,7.8,7.7,7.8
					c3.5,0,6.5-2.3,7.5-5.5c2.4,0,4.7,0,7.1,0c0-1.4,0-2.9,0-4.3C89.6,153.5,87.3,153.4,84.9,153.4L84.9,153.4z M77.4,158.7
					c-1.7,0-3.1-1.4-3.1-3.1c0-1.7,1.4-3.1,3.1-3.1c1.7,0,3.1,1.4,3.1,3.1C80.5,157.3,79.1,158.7,77.4,158.7z"/>
				<path class="st10" d="M125.7,228.2c-3.3-0.7-6.8,0.7-8.5,3.8c-2.1,3.7-0.7,8.5,3,10.5c3.7,2.1,8.5,0.7,10.5-3
					c1.7-3.1,1.1-6.8-1.3-9.2c1.1-2.1,2.3-4.2,3.4-6.2c-1.3-0.7-2.5-1.4-3.8-2.1C127.9,224.1,126.8,226.2,125.7,228.2L125.7,228.2z
					 M126.7,237.3c-0.8,1.5-2.7,2-4.2,1.2c-1.5-0.8-2-2.7-1.2-4.2s2.7-2,4.2-1.2C126.9,233.9,127.5,235.8,126.7,237.3z"/>
				<path class="st10" d="M211,230.2c-2.3,2.4-2.9,6.2-1.1,9.2c2.1,3.7,6.9,5,10.6,2.8c3.7-2.1,5-6.9,2.8-10.6
					c-1.8-3-5.3-4.4-8.6-3.6c-1.2-2-2.4-4.1-3.6-6.1c-1.2,0.7-2.5,1.5-3.7,2.2C208.6,226.2,209.8,228.2,211,230.2L211,230.2z
					 M219.3,234c0.9,1.5,0.4,3.4-1.1,4.2s-3.4,0.4-4.2-1.1s-0.4-3.4,1.1-4.2S218.5,232.6,219.3,234z"/>
				<path class="st10" d="M262.8,147.5c-3.5,0-6.5,2.3-7.5,5.6l-6.7,0.1c0,1.4,0.1,2.8,0.1,4.2c2.2,0,4.4,0,6.6,0
					c0.9,3.2,3.9,5.6,7.4,5.6c4.3,0,7.8-3.4,7.8-7.7S267,147.5,262.8,147.5L262.8,147.5z M265.8,155.3c0,1.7-1.4,3.1-3.1,3.1
					c-1.7,0-3.1-1.4-3.1-3.1c0-1.7,1.4-3.1,3.1-3.1C264.4,152.2,265.8,153.6,265.8,155.3z"/>
				<path class="st10" d="M220.1,68.4c-3.6-2.1-8.3-0.9-10.4,2.8c-1.7,3-1.2,6.7,1.1,9l-3.6,6.3l3.7,2.1l3.6-6.3
					c3.2,0.8,6.7-0.6,8.4-3.6C225,75.2,223.7,70.5,220.1,68.4L220.1,68.4z M219.1,76.7c-0.9,1.6-3,2.1-4.6,1.2
					c-1.6-0.9-2.1-3-1.2-4.5s3-2.1,4.6-1.2C219.5,73.1,220.1,75.1,219.1,76.7z"/>
			</g>
			<g>
				<path class="st10" d="M177.6,62.8c0-4.2-3.5-7.7-7.7-7.7s-7.7,3.5-7.7,7.7c0,3.5,2.4,6.4,5.5,7.3l0,7.3l4.3,0l0-7.3
					C175.2,69.2,177.6,66.3,177.6,62.8L177.6,62.8z M169.9,66.2c-1.9,0-3.4-1.5-3.4-3.3s1.5-3.4,3.4-3.4s3.4,1.5,3.4,3.3
					C173.2,64.6,171.7,66.1,169.9,66.2z"/>
				<path class="st10" d="M97.3,111.2c0.8-3.2-0.5-6.7-3.5-8.5c-3.6-2.2-8.4-1-10.5,2.6c-2.2,3.6-1,8.4,2.6,10.5
					c3,1.8,6.7,1.3,9.2-0.9c2,1.2,4,2.4,6.1,3.6c0.7-1.2,1.4-2.5,2.2-3.7C101.3,113.6,99.3,112.4,97.3,111.2L97.3,111.2z
					 M92.4,110.8c-0.9,1.5-2.8,1.9-4.2,1.1s-1.9-2.8-1.1-4.3c0.9-1.5,2.8-1.9,4.2-1.1S93.3,109.3,92.4,110.8z"/>
				<path class="st10" d="M95.2,196.2c-2.4-2.3-6.2-2.9-9.2-1.1c-3.7,2.1-5,6.9-2.9,10.6c2.1,3.7,6.9,5,10.6,2.9
					c3.1-1.8,4.5-5.3,3.7-8.5c2.1-1.2,4.1-2.4,6.1-3.6c-0.7-1.2-1.5-2.5-2.2-3.7C99.3,193.9,97.3,195.1,95.2,196.2z M91.4,204.6
					c-1.5,0.9-3.4,0.3-4.2-1.1c-0.8-1.5-0.3-3.4,1.2-4.2c1.5-0.9,3.4-0.3,4.2,1.1C93.4,201.8,92.9,203.7,91.4,204.6z"/>
				<path class="st10" d="M168,240.6c-3.2,1-5.6,3.9-5.5,7.5c0,4.3,3.5,7.7,7.8,7.7c4.3,0,7.7-3.5,7.7-7.8c0-3.5-2.4-6.5-5.6-7.4
					c0-2.4-0.1-4.7-0.1-7.1c-1.4,0-2.9,0.1-4.3,0.1C168,235.9,168,238.2,168,240.6L168,240.6z M173.4,248c0,1.7-1.4,3.1-3.1,3.1
					c-1.7,0-3.1-1.4-3.1-3.1s1.4-3.1,3.1-3.1C172,244.9,173.4,246.3,173.4,248z"/>
				<path class="st10" d="M254.4,195c-3-1.8-6.8-1.3-9.2,1l-5.8-3.3c-0.7,1.2-1.4,2.5-2.1,3.7c1.9,1.1,3.8,2.2,5.6,3.4
					c-0.8,3.2,0.5,6.8,3.5,8.6c3.7,2.2,8.4,1,10.6-2.7C259.2,201.9,258,197.2,254.4,195L254.4,195z M253,203.2
					c-0.9,1.5-2.8,1.9-4.2,1.1c-1.5-0.9-1.9-2.8-1.1-4.2c0.9-1.5,2.8-1.9,4.3-1.1C253.4,199.8,253.9,201.7,253,203.2L253,203.2z"/>
				<path class="st10" d="M250.2,101.2c-4.3,0-7.7,3.5-7.7,7.7c0,0.6,0.1,1.2,0.2,1.8l-5.8,3.4l2.2,3.8l5.8-3.4
					c1.4,1.3,3.3,2.1,5.3,2.1c4.3,0,7.7-3.5,7.7-7.7S254.5,101.2,250.2,101.2L250.2,101.2z M250.2,111.9c-1.7,0-3-1.3-3-3s1.4-3,3-3
					s3,1.3,3,3S251.8,111.9,250.2,111.9z"/>
			</g>
		</g>
	</g>
</g>
</svg>
