<?xml version="1.0" encoding="utf-8"?>
<!-- Generator: Adobe Illustrator 26.2.1, SVG Export Plug-In . SVG Version: 6.00 Build 0)  -->
<svg version="1.1" id="Layer_1" xmlns="http://www.w3.org/2000/svg" xmlns:xlink="http://www.w3.org/1999/xlink" x="0px" y="0px"
	 viewBox="0 0 339.4 312.4" style="enable-background:new 0 0 339.4 312.4;" xml:space="preserve">
<style type="text/css">
	.st0{fill:#673AB7;}
	.st1{fill:#FFFFFF;}
	.st2{fill:#C2B0E2;}
	.st3{fill:#CEC0E8;}
	.st4{opacity:0.5;fill:url(#SVGID_1_);enable-background:new    ;}
	.st5{opacity:0.5;fill:url(#SVGID_00000130618210033925271410000011846475130788382399_);enable-background:new    ;}
	.st6{opacity:0.5;fill:url(#SVGID_00000091703886537656090300000013132954928221720199_);enable-background:new    ;}
	.st7{opacity:0.5;fill:url(#SVGID_00000161606274891862922050000000381956932431522469_);enable-background:new    ;}
	.st8{clip-path:url(#SVGID_00000075130257642363092310000013786956459394988453_);}
	.st9{opacity:0.5;fill:url(#SVGID_00000178901133743652394740000015384162988848357802_);enable-background:new    ;}
	.st10{opacity:0.5;}
	.st11{fill:#FAFAFA;}
</style>
<g>
	<g id="a">
		<polygon class="st0" points="240.8,33.5 98.7,33.5 27.6,156.2 98.7,278.9 240.8,278.9 311.8,156.2 		"/>
	</g>
	<g id="b">
		<g>
			<path class="st1" d="M156.1,112c0,0-1.4-1.7-3.3-2.6c-1.9-0.9-3.7-1.8-6.4-2.8c-2-0.8-4.3-1.3-5.4-2c-1.6-0.8-2.7-2.4-2.7-4.3
				c0-2.3,1.6-4.2,3.8-4.7l0,0l0,0c0,0,4-1.4,15.2,5.4c0,0,5.8,3.6,7.2,5c1.4,1.5,1.8,2.1,2.4,2.7C167.5,109.4,156,112,156.1,112
				L156.1,112z"/>
			<path class="st1" d="M171.7,108.9C171.7,108.9,171.7,108.9,171.7,108.9c0.2,0.6,5.4,1.9,10.9,3.2c0,0,1.4-1.7,3.3-2.6
				c1.9-0.9,3.7-1.8,6.4-2.8c2-0.8,4.3-1.3,5.4-2c1.6-0.8,2.7-2.4,2.7-4.3c0-2.3-1.6-4.2-3.8-4.7l0,0l0,0c-0.5-0.1-1.2-0.2-2.1-0.2
				c-0.7,0-1.4,0.2-2.2,0.4c-1.4,0.4-1.9,0.7-4.4,1.7c-1.3,0.5-1.3,0.5-2.2,0.8c-1.2,0.5-2.1,1-2.8,1.3c-0.8,0.4-1.9,1-3.2,1.8
				c-1.3,0.8-2.2,1.4-3.4,2.4c-0.9,0.7-1,1-2.4,2.3c-1,1-1.9,1.8-2.5,2.4L171.7,108.9L171.7,108.9z"/>
			<path class="st2" d="M181.2,195.9V217h-11.6v-23.4h9.4C180.2,193.6,181.2,194.6,181.2,195.9z"/>
			<path class="st3" d="M169.6,193.6V217h-10.7v-21.1c0-1.2,1.1-2.3,2.4-2.3H169.6z"/>
			<path class="st1" d="M228,178.7l4.5,23.7c0.1,0.5,0.1,1.4-0.3,2.2c-0.7,1.9-2.7,3.2-4.7,3.3c-3,0.1-4.8-2.4-4.9-2.5l-3.9-18.9
				c-0.3-1.7-0.6-3.4-0.9-5.2c-7.3-3-14.6-6-21.9-9l8.2-7.5l23,9.3L228,178.7L228,178.7z"/>
			<path class="st1" d="M112.3,178.7l-4.5,23.7c-0.1,0.5-0.1,1.4,0.3,2.2c0.7,1.9,2.7,3.2,4.7,3.3c3,0.1,4.8-2.4,4.9-2.5l3.9-18.9
				c0.3-1.7,0.6-3.4,0.9-5.2c7.3-3,14.6-6,21.9-9l-8.2-7.5l-23,9.3L112.3,178.7L112.3,178.7z"/>
			<path class="st1" d="M145.6,156l-8.7,9c-7.8-2.4-15.6-4.7-23.3-7.1l-6.4-22.9l-0.4-1.4c0-0.2,0-0.4,0-0.6c0,0,0-0.1,0-0.1
				c0-2.8,2.3-5.1,5.1-5.1c2.2,0,4.1,1.4,4.8,3.4l5.4,18.2C129.8,151.7,137.7,153.9,145.6,156L145.6,156z"/>
			<path class="st1" d="M194.7,156.2c3.5,2.7,7,5.4,10.4,8.1l22-6.4l6.4-22.9l0.4-1.4c0-0.2,0-0.4,0-0.6c0,0,0-0.1,0-0.1
				c0-2.8-2.3-5.1-5.1-5.1c-2.2,0-4.1,1.4-4.8,3.4l-5.4,18.2C210.7,151.8,202.7,154,194.7,156.2L194.7,156.2z"/>
			
				<radialGradient id="SVGID_1_" cx="-2246.0923" cy="722.3833" r="19.95" gradientTransform="matrix(-1.55 0 0 1.52 -3309.78 -973.18)" gradientUnits="userSpaceOnUse">
				<stop  offset="0" style="stop-color:#673AB7"/>
				<stop  offset="0" style="stop-color:#673AB7;stop-opacity:0.99"/>
				<stop  offset="0" style="stop-color:#673AB7;stop-opacity:0.95"/>
				<stop  offset="0" style="stop-color:#673AB7;stop-opacity:0.87"/>
				<stop  offset="0" style="stop-color:#673AB7;stop-opacity:0.77"/>
				<stop  offset="0" style="stop-color:#673AB7;stop-opacity:0.7"/>
				<stop  offset="0.14" style="stop-color:#7248BC;stop-opacity:0.65"/>
				<stop  offset="0.38" style="stop-color:#673AB7;stop-opacity:0.51"/>
				<stop  offset="0.68" style="stop-color:#673AB7;stop-opacity:0.28"/>
				<stop  offset="1" style="stop-color:#673AB7;stop-opacity:0"/>
			</radialGradient>
			<ellipse class="st4" cx="169.9" cy="123.9" rx="30.9" ry="30.2"/>
			<ellipse class="st1" cx="169" cy="133.7" rx="27.1" ry="26.6"/>
			
				<radialGradient id="SVGID_00000029744513435762526350000011071696702974544308_" cx="-2225.5762" cy="750.4592" r="19.95" gradientTransform="matrix(-1.55 0 0 1.52 -3309.78 -973.18)" gradientUnits="userSpaceOnUse">
				<stop  offset="0" style="stop-color:#673AB7"/>
				<stop  offset="0" style="stop-color:#673AB7;stop-opacity:0.99"/>
				<stop  offset="0" style="stop-color:#673AB7;stop-opacity:0.95"/>
				<stop  offset="0" style="stop-color:#673AB7;stop-opacity:0.87"/>
				<stop  offset="0" style="stop-color:#673AB7;stop-opacity:0.77"/>
				<stop  offset="0" style="stop-color:#673AB7;stop-opacity:0.7"/>
				<stop  offset="0.14" style="stop-color:#7248BC;stop-opacity:0.65"/>
				<stop  offset="0.38" style="stop-color:#673AB7;stop-opacity:0.51"/>
				<stop  offset="0.68" style="stop-color:#673AB7;stop-opacity:0.28"/>
				<stop  offset="1" style="stop-color:#673AB7;stop-opacity:0"/>
			</radialGradient>
			
				<ellipse style="opacity:0.5;fill:url(#SVGID_00000029744513435762526350000011071696702974544308_);enable-background:new    ;" cx="138" cy="166.6" rx="30.9" ry="30.2"/>
			
				<radialGradient id="SVGID_00000075157762257562997650000003905790282581457819_" cx="-2266.2666" cy="750.4592" r="19.95" gradientTransform="matrix(-1.55 0 0 1.52 -3309.78 -973.18)" gradientUnits="userSpaceOnUse">
				<stop  offset="0" style="stop-color:#673AB7"/>
				<stop  offset="0" style="stop-color:#673AB7;stop-opacity:0.99"/>
				<stop  offset="0" style="stop-color:#673AB7;stop-opacity:0.95"/>
				<stop  offset="0" style="stop-color:#673AB7;stop-opacity:0.87"/>
				<stop  offset="0" style="stop-color:#673AB7;stop-opacity:0.77"/>
				<stop  offset="0" style="stop-color:#673AB7;stop-opacity:0.7"/>
				<stop  offset="0.14" style="stop-color:#7248BC;stop-opacity:0.65"/>
				<stop  offset="0.38" style="stop-color:#673AB7;stop-opacity:0.51"/>
				<stop  offset="0.68" style="stop-color:#673AB7;stop-opacity:0.28"/>
				<stop  offset="1" style="stop-color:#673AB7;stop-opacity:0"/>
			</radialGradient>
			
				<ellipse style="opacity:0.5;fill:url(#SVGID_00000075157762257562997650000003905790282581457819_);enable-background:new    ;" cx="201.1" cy="166.6" rx="30.9" ry="30.2"/>
			
				<radialGradient id="SVGID_00000173157577636746204110000014256172056155236272_" cx="-2246.0923" cy="738.6111" r="19.95" gradientTransform="matrix(-1.55 0 0 1.52 -3309.78 -973.18)" gradientUnits="userSpaceOnUse">
				<stop  offset="0" style="stop-color:#673AB7"/>
				<stop  offset="0" style="stop-color:#673AB7;stop-opacity:0.99"/>
				<stop  offset="0" style="stop-color:#673AB7;stop-opacity:0.95"/>
				<stop  offset="0" style="stop-color:#673AB7;stop-opacity:0.87"/>
				<stop  offset="0" style="stop-color:#673AB7;stop-opacity:0.77"/>
				<stop  offset="0" style="stop-color:#673AB7;stop-opacity:0.7"/>
				<stop  offset="0.14" style="stop-color:#7248BC;stop-opacity:0.65"/>
				<stop  offset="0.38" style="stop-color:#673AB7;stop-opacity:0.51"/>
				<stop  offset="0.68" style="stop-color:#673AB7;stop-opacity:0.28"/>
				<stop  offset="1" style="stop-color:#673AB7;stop-opacity:0"/>
			</radialGradient>
			
				<ellipse style="opacity:0.5;fill:url(#SVGID_00000173157577636746204110000014256172056155236272_);enable-background:new    ;" cx="169.9" cy="148.6" rx="30.9" ry="30.2"/>
			<path class="st1" d="M211.8,175.3c-4.7,0-10.8,0-10.8,0v39.3c0,1.3-1.1,2.4-2.4,2.4h-17.8v-20.7c0-1.2-1-2.2-2.2-2.2h-17
				c-1.2,0-2.2,1-2.2,2.2V217h-18.2c-1.3,0-2.4-1.1-2.4-2.4v-38.6h-11.2c-2.7,0-4.1-3.2-2.3-5.2l40.8-46.4c1.8-2,5-2,6.7,0l41,46.8
				C215.1,172.7,213.9,175.3,211.8,175.3L211.8,175.3z"/>
			<g>
				<g>
					<defs>
						<rect id="SVGID_00000093150242455200661770000008278546100494910357_" x="169.6" y="122" width="30.7" height="73.4"/>
					</defs>
					<clipPath id="SVGID_00000155855720214371565500000015986922444947371404_">
						<use xlink:href="#SVGID_00000093150242455200661770000008278546100494910357_"  style="overflow:visible;"/>
					</clipPath>
					<g style="clip-path:url(#SVGID_00000155855720214371565500000015986922444947371404_);">
						
							<radialGradient id="SVGID_00000125571087449473155410000002306062052199103633_" cx="94.84" cy="393.4296" r="19.9604" gradientTransform="matrix(1.2 0 0 -1.42 52.71 718.24)" gradientUnits="userSpaceOnUse">
							<stop  offset="0" style="stop-color:#673AB7"/>
							<stop  offset="0" style="stop-color:#673AB7;stop-opacity:0.99"/>
							<stop  offset="0" style="stop-color:#673AB7;stop-opacity:0.95"/>
							<stop  offset="0" style="stop-color:#673AB7;stop-opacity:0.87"/>
							<stop  offset="0" style="stop-color:#673AB7;stop-opacity:0.77"/>
							<stop  offset="0" style="stop-color:#673AB7;stop-opacity:0.7"/>
							<stop  offset="0.14" style="stop-color:#7248BC;stop-opacity:0.65"/>
							<stop  offset="0.38" style="stop-color:#9070CA;stop-opacity:0.51"/>
							<stop  offset="0.68" style="stop-color:#C2B0E2;stop-opacity:0.28"/>
							<stop  offset="1" style="stop-color:#FFFFFF;stop-opacity:0"/>
						</radialGradient>
						
							<ellipse style="opacity:0.5;fill:url(#SVGID_00000125571087449473155410000002306062052199103633_);enable-background:new    ;" cx="168" cy="159.6" rx="24" ry="28.3"/>
					</g>
				</g>
			</g>
		</g>
	</g>
	<g id="y">
		<g>
			<g class="st10">
				<path class="st11" d="M129.1,80.6c2.3-2.4,2.9-6.1,1.1-9.1c-2.1-3.7-6.8-4.9-10.5-2.8s-4.9,6.8-2.8,10.5c1.7,3,5.2,4.4,8.5,3.6
					c1.2,2,2.4,4.1,3.5,6.1c1.2-0.7,2.5-1.4,3.7-2.2C131.5,84.6,130.3,82.6,129.1,80.6z M125.1,77.9c-1.5,0.9-3.4,0.3-4.2-1.2
					s-0.3-3.4,1.1-4.3c1.5-0.9,3.4-0.3,4.2,1.2S126.6,77.1,125.1,77.9z"/>
				<path class="st11" d="M84.9,153.4c-0.9-3.2-3.9-5.6-7.4-5.6c-4.3,0-7.8,3.4-7.8,7.7c0,4.3,3.4,7.8,7.7,7.8
					c3.5,0,6.5-2.3,7.5-5.5c2.4,0,4.7,0,7.1,0c0-1.4,0-2.9,0-4.3C89.6,153.5,87.3,153.4,84.9,153.4L84.9,153.4z M77.4,158.7
					c-1.7,0-3.1-1.4-3.1-3.1c0-1.7,1.4-3.1,3.1-3.1c1.7,0,3.1,1.4,3.1,3.1C80.5,157.3,79.1,158.7,77.4,158.7z"/>
				<path class="st11" d="M125.7,228.2c-3.3-0.7-6.8,0.7-8.5,3.8c-2.1,3.7-0.7,8.5,3,10.5c3.7,2.1,8.5,0.7,10.5-3
					c1.7-3.1,1.1-6.8-1.3-9.2c1.1-2.1,2.3-4.2,3.4-6.2c-1.3-0.7-2.5-1.4-3.8-2.1C127.9,224.1,126.8,226.2,125.7,228.2L125.7,228.2z
					 M126.7,237.3c-0.8,1.5-2.7,2-4.2,1.2c-1.5-0.8-2-2.7-1.2-4.2s2.7-2,4.2-1.2C126.9,233.9,127.5,235.8,126.7,237.3z"/>
				<path class="st11" d="M211,230.2c-2.3,2.4-2.9,6.2-1.1,9.2c2.1,3.7,6.9,5,10.6,2.8c3.7-2.1,5-6.9,2.8-10.6
					c-1.8-3-5.3-4.4-8.6-3.6c-1.2-2-2.4-4.1-3.6-6.1c-1.2,0.7-2.5,1.5-3.7,2.2C208.6,226.2,209.8,228.2,211,230.2L211,230.2z
					 M219.3,234c0.9,1.5,0.4,3.4-1.1,4.2s-3.4,0.4-4.2-1.1s-0.4-3.4,1.1-4.2S218.5,232.6,219.3,234z"/>
				<path class="st11" d="M262.8,147.5c-3.5,0-6.5,2.3-7.5,5.6l-6.7,0.1c0,1.4,0.1,2.8,0.1,4.2c2.2,0,4.4,0,6.6,0
					c0.9,3.2,3.9,5.6,7.4,5.6c4.3,0,7.8-3.4,7.8-7.7S267,147.5,262.8,147.5L262.8,147.5z M265.8,155.3c0,1.7-1.4,3.1-3.1,3.1
					c-1.7,0-3.1-1.4-3.1-3.1c0-1.7,1.4-3.1,3.1-3.1C264.4,152.2,265.8,153.6,265.8,155.3z"/>
				<path class="st11" d="M220.1,68.4c-3.6-2.1-8.3-0.9-10.4,2.8c-1.7,3-1.2,6.7,1.1,9l-3.6,6.3l3.7,2.1l3.6-6.3
					c3.2,0.8,6.7-0.6,8.4-3.6C225,75.2,223.7,70.5,220.1,68.4L220.1,68.4z M219.1,76.7c-0.9,1.6-3,2.1-4.6,1.2
					c-1.6-0.9-2.1-3-1.2-4.5s3-2.1,4.6-1.2C219.5,73.1,220.1,75.1,219.1,76.7z"/>
			</g>
			<g>
				<path class="st11" d="M177.6,62.8c0-4.2-3.5-7.7-7.7-7.7s-7.7,3.5-7.7,7.7c0,3.5,2.4,6.4,5.5,7.3l0,7.3l4.3,0l0-7.3
					C175.2,69.2,177.6,66.3,177.6,62.8L177.6,62.8z M169.9,66.2c-1.9,0-3.4-1.5-3.4-3.3s1.5-3.4,3.4-3.4s3.4,1.5,3.4,3.3
					C173.2,64.6,171.7,66.1,169.9,66.2z"/>
				<path class="st11" d="M97.3,111.2c0.8-3.2-0.5-6.7-3.5-8.5c-3.6-2.2-8.4-1-10.5,2.6c-2.2,3.6-1,8.4,2.6,10.5
					c3,1.8,6.7,1.3,9.2-0.9c2,1.2,4,2.4,6.1,3.6c0.7-1.2,1.4-2.5,2.2-3.7C101.3,113.6,99.3,112.4,97.3,111.2L97.3,111.2z
					 M92.4,110.8c-0.9,1.5-2.8,1.9-4.2,1.1s-1.9-2.8-1.1-4.3c0.9-1.5,2.8-1.9,4.2-1.1S93.3,109.3,92.4,110.8z"/>
				<path class="st11" d="M95.2,196.2c-2.4-2.3-6.2-2.9-9.2-1.1c-3.7,2.1-5,6.9-2.9,10.6c2.1,3.7,6.9,5,10.6,2.9
					c3.1-1.8,4.5-5.3,3.7-8.5c2.1-1.2,4.1-2.4,6.1-3.6c-0.7-1.2-1.5-2.5-2.2-3.7C99.3,193.9,97.3,195.1,95.2,196.2z M91.4,204.6
					c-1.5,0.9-3.4,0.3-4.2-1.1c-0.8-1.5-0.3-3.4,1.2-4.2c1.5-0.9,3.4-0.3,4.2,1.1C93.4,201.8,92.9,203.7,91.4,204.6z"/>
				<path class="st11" d="M168,240.6c-3.2,1-5.6,3.9-5.5,7.5c0,4.3,3.5,7.7,7.8,7.7c4.3,0,7.7-3.5,7.7-7.8c0-3.5-2.4-6.5-5.6-7.4
					c0-2.4-0.1-4.7-0.1-7.1c-1.4,0-2.9,0.1-4.3,0.1C168,235.9,168,238.2,168,240.6L168,240.6z M173.4,248c0,1.7-1.4,3.1-3.1,3.1
					c-1.7,0-3.1-1.4-3.1-3.1s1.4-3.1,3.1-3.1C172,244.9,173.4,246.3,173.4,248z"/>
				<path class="st11" d="M254.4,195c-3-1.8-6.8-1.3-9.2,1l-5.8-3.3c-0.7,1.2-1.4,2.5-2.1,3.7c1.9,1.1,3.8,2.2,5.6,3.4
					c-0.8,3.2,0.5,6.8,3.5,8.6c3.7,2.2,8.4,1,10.6-2.7C259.2,201.9,258,197.2,254.4,195L254.4,195z M253,203.2
					c-0.9,1.5-2.8,1.9-4.2,1.1c-1.5-0.9-1.9-2.8-1.1-4.2c0.9-1.5,2.8-1.9,4.3-1.1C253.4,199.8,253.9,201.7,253,203.2L253,203.2z"/>
				<path class="st11" d="M250.2,101.2c-4.3,0-7.7,3.5-7.7,7.7c0,0.6,0.1,1.2,0.2,1.8l-5.8,3.4l2.2,3.8l5.8-3.4
					c1.4,1.3,3.3,2.1,5.3,2.1c4.3,0,7.7-3.5,7.7-7.7S254.5,101.2,250.2,101.2L250.2,101.2z M250.2,111.9c-1.7,0-3-1.3-3-3s1.4-3,3-3
					s3,1.3,3,3S251.8,111.9,250.2,111.9z"/>
			</g>
		</g>
	</g>
</g>
</svg>
