<?xml version="1.0" encoding="utf-8"?>
<!-- Generator: Adobe Illustrator 26.2.1, SVG Export Plug-In . SVG Version: 6.00 Build 0)  -->
<svg version="1.1" id="Layer_1" xmlns="http://www.w3.org/2000/svg" xmlns:xlink="http://www.w3.org/1999/xlink" x="0px" y="0px"
	 viewBox="0 0 339.4 312.4" style="enable-background:new 0 0 339.4 312.4;" xml:space="preserve">
<style type="text/css">
	.st0{fill:#673AB7;}
	.st1{fill:#FFFFFF;}
	.st2{opacity:0.5;fill:url(#SVGID_1_);enable-background:new    ;}
	.st3{fill:#C2B0E2;}
	.st4{opacity:0.5;fill:url(#SVGID_00000099622550995538674660000005309255377067955614_);enable-background:new    ;}
	.st5{opacity:0.5;fill:url(#SVGID_00000020396403804605477630000008490725929184055210_);enable-background:new    ;}
	.st6{opacity:0.5;fill:url(#SVGID_00000031180113013390713270000017456623100637853590_);enable-background:new    ;}
	.st7{clip-path:url(#SVGID_00000183239511878066366680000010593609589275788471_);}
	.st8{fill:url(#SVGID_00000162333070425779753550000011994720111069615000_);}
	.st9{clip-path:url(#SVGID_00000111177333616630452660000009163806428415311014_);}
	.st10{opacity:0.5;fill:url(#SVGID_00000106854260183315958500000011682941987057748610_);enable-background:new    ;}
	.st11{opacity:0.5;}
	.st12{fill:#FAFAFA;}
</style>
<g>
	<g id="a">
		<polygon class="st0" points="240.8,33.5 98.7,33.5 27.6,156.2 98.7,278.9 240.8,278.9 311.8,156.2 		"/>
	</g>
	<g id="b">
		<g>
			<path class="st1" d="M227.3,177.2l4.5,23.7l0.3,1.5c0,0.2,0,0.4,0,0.6c0,0,0,0.1,0,0.1c-0.2,2.8-2.8,4.9-5.6,4.7
				c-2.2-0.2-4-1.8-4.6-3.9L218,185l-0.8-4.6c-6-2.5-12-5-18-7.4c1.4-3.2,2.7-6.5,4.1-9.8c7.7,3.1,15.5,6.1,23.2,9.2
				C226.8,174,227,175.6,227.3,177.2L227.3,177.2z"/>
			<path class="st1" d="M198.5,153.8c1.3,3.4,2.6,6.8,3.9,10.1c7.9-2.3,15.9-4.6,23.9-6.9l6.5-22.9l0.4-1.4c0-0.2,0-0.4,0-0.6
				c0,0,0-0.1,0-0.1c0-2.8-2.3-5.1-5.1-5.1c-2.2,0-4.1,1.4-4.8,3.4l-5.5,18.2C211.4,150.4,204.9,152.1,198.5,153.8L198.5,153.8z"/>
			<path class="st1" d="M112,177.7l-4.5,23.7l-0.3,1.5c0,0.2,0,0.4,0,0.6c0,0,0,0.1,0,0.1c0.2,2.8,2.8,4.9,5.6,4.7
				c2.2-0.2,4-1.8,4.6-3.9l3.9-18.9l0.8-4.6c6-2.5,12-5,18-7.4c-1.4-3.2-2.7-6.5-4.1-9.8c-7.7,3.1-15.5,6.1-23.2,9.2
				C112.5,174.5,112.2,176.1,112,177.7L112,177.7z"/>
			<path class="st1" d="M141,154.5c1.1,3.9,2.2,7.8,3.3,11.7c-10.5-3.1-21.1-6.2-31.6-9.3l-6.3-22.9l-0.4-1.4c0-0.2,0-0.4,0-0.6
				c0,0,0-0.1,0-0.1c0-2.8,2.3-5.1,5.1-5.1c2.2,0,4.1,1.4,4.8,3.4l5.3,18.3C127.8,150.6,134.4,152.6,141,154.5L141,154.5z"/>
			
				<radialGradient id="SVGID_1_" cx="-926.2923" cy="199.8363" r="19.95" gradientTransform="matrix(-1.55 0 0 -1.52 -1297.83 469.26)" gradientUnits="userSpaceOnUse">
				<stop  offset="0" style="stop-color:#673AB7"/>
				<stop  offset="0" style="stop-color:#673AB7;stop-opacity:0.99"/>
				<stop  offset="0" style="stop-color:#673AB7;stop-opacity:0.95"/>
				<stop  offset="0" style="stop-color:#673AB7;stop-opacity:0.87"/>
				<stop  offset="0" style="stop-color:#673AB7;stop-opacity:0.77"/>
				<stop  offset="0" style="stop-color:#673AB7;stop-opacity:0.7"/>
				<stop  offset="0.14" style="stop-color:#7248BC;stop-opacity:0.65"/>
				<stop  offset="0.38" style="stop-color:#9070CA;stop-opacity:0.51"/>
				<stop  offset="0.68" style="stop-color:#C2B0E2;stop-opacity:0.28"/>
				<stop  offset="1" style="stop-color:#FFFFFF;stop-opacity:0"/>
			</radialGradient>
			<ellipse class="st2" cx="136.1" cy="164.6" rx="30.9" ry="30.2"/>
			<g>
				<path class="st1" d="M156.2,110.1c0,0-1.4-1.7-3.3-2.6c-1.9-0.9-3.7-1.8-6.4-2.8c-2-0.8-4.3-1.3-5.4-2c-1.6-0.8-2.7-2.4-2.7-4.3
					c0-2.3,1.6-4.2,3.8-4.7l0,0l0,0c0,0,4-1.4,15.2,5.4c0,0,5.8,3.6,7.2,5c1.4,1.5,1.8,2.1,2.4,2.7
					C167.7,107.5,156.2,110.1,156.2,110.1L156.2,110.1z"/>
				<path class="st1" d="M172.2,107.2C172.2,107.2,172.2,107.2,172.2,107.2c0.2,0.6,5.4,1.9,10.9,3.2c0,0,1.4-1.7,3.3-2.6
					c1.9-0.9,3.7-1.8,6.4-2.8c2-0.8,4.3-1.3,5.4-2c1.6-0.8,2.7-2.4,2.7-4.3c0-2.3-1.6-4.2-3.8-4.7l0,0l0,0c-0.5-0.1-1.2-0.2-2.1-0.2
					c-0.7,0-1.4,0.2-2.2,0.4c-1.4,0.4-1.9,0.7-4.4,1.7c-1.3,0.5-1.3,0.5-2.2,0.8c-1.2,0.5-2.1,1-2.8,1.3c-0.8,0.4-1.9,1-3.2,1.8
					c-1.3,0.8-2.2,1.4-3.4,2.4c-0.9,0.7-1,1-2.4,2.3c-1,1-1.9,1.8-2.5,2.4L172.2,107.2L172.2,107.2z"/>
			</g>
			<path class="st3" d="M204.2,167v10.6c-0.2,0.2-2.4,1.6-2.4,1.6c-1.5,1-5,2.9-9.7,4.5c-4.5,1.5-8.1,2.1-10.9,2.4
				c-5.3,0.7-9.7,0.7-12.8,0.6c0,0-13,0-21.5-3.2c-5.5-2.1-9.6-3.8-11.7-6.1v-9.3c0.8,2,2.6,4.5,7,6.5c0,0,9.3,3.7,26.3,4.1
				c6.2,0.4,13.6-0.1,21.6-2.5c2.4-0.7,4.6-0.9,6.8-1.8C202.3,172,203.8,169,204.2,167L204.2,167z"/>
			
				<radialGradient id="SVGID_00000131348824656861758020000006735325286315285133_" cx="-966.9826" cy="199.8363" r="19.95" gradientTransform="matrix(-1.55 0 0 -1.52 -1297.83 469.26)" gradientUnits="userSpaceOnUse">
				<stop  offset="0" style="stop-color:#673AB7"/>
				<stop  offset="0" style="stop-color:#673AB7;stop-opacity:0.99"/>
				<stop  offset="0" style="stop-color:#673AB7;stop-opacity:0.95"/>
				<stop  offset="0" style="stop-color:#673AB7;stop-opacity:0.87"/>
				<stop  offset="0" style="stop-color:#673AB7;stop-opacity:0.77"/>
				<stop  offset="0" style="stop-color:#673AB7;stop-opacity:0.7"/>
				<stop  offset="0.14" style="stop-color:#7248BC;stop-opacity:0.65"/>
				<stop  offset="0.38" style="stop-color:#673AB7;stop-opacity:0.51"/>
				<stop  offset="0.68" style="stop-color:#673AB7;stop-opacity:0.28"/>
				<stop  offset="1" style="stop-color:#673AB7;stop-opacity:0"/>
			</radialGradient>
			
				<ellipse style="opacity:0.5;fill:url(#SVGID_00000131348824656861758020000006735325286315285133_);enable-background:new    ;" cx="199.2" cy="164.6" rx="30.9" ry="30.2"/>
			
				<radialGradient id="SVGID_00000071542931617762389700000008449350438440231857_" cx="-948.06" cy="226.5904" r="19.95" gradientTransform="matrix(-1.55 0 0 -1.52 -1297.83 469.26)" gradientUnits="userSpaceOnUse">
				<stop  offset="0" style="stop-color:#673AB7"/>
				<stop  offset="0" style="stop-color:#673AB7;stop-opacity:0.99"/>
				<stop  offset="0" style="stop-color:#673AB7;stop-opacity:0.95"/>
				<stop  offset="0" style="stop-color:#673AB7;stop-opacity:0.87"/>
				<stop  offset="0" style="stop-color:#673AB7;stop-opacity:0.77"/>
				<stop  offset="0" style="stop-color:#673AB7;stop-opacity:0.7"/>
				<stop  offset="0.14" style="stop-color:#7248BC;stop-opacity:0.65"/>
				<stop  offset="0.38" style="stop-color:#673AB7;stop-opacity:0.51"/>
				<stop  offset="0.68" style="stop-color:#673AB7;stop-opacity:0.28"/>
				<stop  offset="1" style="stop-color:#673AB7;stop-opacity:0"/>
			</radialGradient>
			
				<ellipse style="opacity:0.5;fill:url(#SVGID_00000071542931617762389700000008449350438440231857_);enable-background:new    ;" cx="169.9" cy="123.9" rx="30.9" ry="30.2"/>
			<ellipse class="st1" cx="169.7" cy="132" rx="27.1" ry="26.7"/>
			
				<radialGradient id="SVGID_00000017494847252628792280000012731730752222128566_" cx="-948.06" cy="199.8363" r="19.95" gradientTransform="matrix(-1.55 0 0 -1.52 -1297.83 469.26)" gradientUnits="userSpaceOnUse">
				<stop  offset="0" style="stop-color:#673AB7"/>
				<stop  offset="0" style="stop-color:#673AB7;stop-opacity:0.99"/>
				<stop  offset="0" style="stop-color:#673AB7;stop-opacity:0.95"/>
				<stop  offset="0" style="stop-color:#673AB7;stop-opacity:0.87"/>
				<stop  offset="0" style="stop-color:#673AB7;stop-opacity:0.77"/>
				<stop  offset="0" style="stop-color:#673AB7;stop-opacity:0.7"/>
				<stop  offset="0.14" style="stop-color:#7248BC;stop-opacity:0.65"/>
				<stop  offset="0.38" style="stop-color:#673AB7;stop-opacity:0.51"/>
				<stop  offset="0.68" style="stop-color:#673AB7;stop-opacity:0.28"/>
				<stop  offset="1" style="stop-color:#673AB7;stop-opacity:0"/>
			</radialGradient>
			
				<ellipse style="opacity:0.5;fill:url(#SVGID_00000017494847252628792280000012731730752222128566_);enable-background:new    ;" cx="169.9" cy="164.6" rx="30.9" ry="30.2"/>
			<path class="st3" d="M204.2,186.8v11.9c-0.2,0.1-2.4,1.3-2.4,1.3c-1.5,0.8-5,2.4-9.7,3.7c-4.5,1.3-8.1,1.7-10.9,2
				c-5.3,0.6-9.7,0.6-12.8,0.5c0,0-13,0-21.5-2.7c-5.5-1.7-9.6-3.1-11.7-5.1v-10.7c0.8,1.6,2.6,3.7,7,5.4c0,0,9.3,3.9,26.3,4.3
				c6.2,0.3,13.6-0.1,21.6-2.1c2.4-0.6,4.6-1.3,6.8-2C202.3,191.2,203.8,188.5,204.2,186.8L204.2,186.8z"/>
			<path class="st1" d="M169.7,140.8c-19.1,0-34.5,3.5-34.5,7.8v7.6v15.3c0.7,3,16.5,7.8,33.9,7.8c0.1,0,0.2,0,0.3,0
				c0.1,0,0.2,0,0.3,0c10.4,0,19.7-1.4,26-3.7c4.9-1.5,8.2-3.2,8.5-4.8v-22.2C204.2,144.3,188.8,140.8,169.7,140.8L169.7,140.8z"/>
			<path class="st1" d="M204.2,197.2c-5.9,4.1-19.7,7-35.1,7s-28-2.8-34-6.9v12.2c0,5.2,15.4,9.4,34.5,9.4s34.6-4.2,34.6-9.4
				L204.2,197.2L204.2,197.2z"/>
			<path class="st1" d="M204.2,177.1c-5.9,4.1-19.7,7-35.1,7s-28.9-3.3-33.9-7v15.4c0.7,3,16.5,7.8,33.9,7.8s34.4-4.8,35.1-8.5
				V177.1L204.2,177.1z"/>
			<g>
				<defs>
					<path id="SVGID_00000031168024502365725930000002290755642331252926_" d="M204.2,177.1c-5.9,4.1-19.7,7-35.1,7
						s-28.9-3.3-33.9-7v15.4c0.7,3,16.5,7.8,33.9,7.8s34.4-4.8,35.1-8.5V177.1L204.2,177.1z"/>
				</defs>
				<clipPath id="SVGID_00000052079303938369956000000011916262683907507862_">
					<use xlink:href="#SVGID_00000031168024502365725930000002290755642331252926_"  style="overflow:visible;"/>
				</clipPath>
				<g style="clip-path:url(#SVGID_00000052079303938369956000000011916262683907507862_);">
					
						<linearGradient id="SVGID_00000085208355090354545920000004122686457876404619_" gradientUnits="userSpaceOnUse" x1="169.71" y1="113.78" x2="169.71" y2="122.26" gradientTransform="matrix(1 0 0 -1 0 314)">
						<stop  offset="0" style="stop-color:#BBB3DB;stop-opacity:0.6"/>
						<stop  offset="0.14" style="stop-color:#C3BCDF;stop-opacity:0.53"/>
						<stop  offset="0.4" style="stop-color:#D9D4EA;stop-opacity:0.34"/>
						<stop  offset="0.77" style="stop-color:#FBFBFD;stop-opacity:3.000000e-02"/>
						<stop  offset="0.8" style="stop-color:#FFFFFF;stop-opacity:0"/>
					</linearGradient>
					<path style="fill:url(#SVGID_00000085208355090354545920000004122686457876404619_);" d="M135.2,192.5c0.7,3,16.5,7.8,33.9,7.8
						s34.4-4.8,35.1-8.5"/>
				</g>
			</g>
			<g>
				<g>
					<defs>
						<path id="SVGID_00000127033998155491464950000016778606579577868730_" d="M186.7,146.6h-16.6v70.8h15.4
							c10.3,0,18.6-8.4,18.6-18.6v-34.6C204.2,154.4,196.4,146.6,186.7,146.6L186.7,146.6z"/>
					</defs>
					<clipPath id="SVGID_00000055700391437498157940000000469186258998258851_">
						<use xlink:href="#SVGID_00000127033998155491464950000016778606579577868730_"  style="overflow:visible;"/>
					</clipPath>
					<g style="clip-path:url(#SVGID_00000055700391437498157940000000469186258998258851_);">
						
							<radialGradient id="SVGID_00000063612759745035453630000006031426566310386867_" cx="-7.4537" cy="192.3962" r="20.8417" gradientTransform="matrix(1.28 0 0 -1.59 177.59 481.35)" gradientUnits="userSpaceOnUse">
							<stop  offset="0" style="stop-color:#673AB7"/>
							<stop  offset="0" style="stop-color:#673AB7;stop-opacity:0.99"/>
							<stop  offset="0" style="stop-color:#673AB7;stop-opacity:0.95"/>
							<stop  offset="0" style="stop-color:#673AB7;stop-opacity:0.87"/>
							<stop  offset="0" style="stop-color:#673AB7;stop-opacity:0.77"/>
							<stop  offset="0" style="stop-color:#673AB7;stop-opacity:0.7"/>
							<stop  offset="0.14" style="stop-color:#7248BC;stop-opacity:0.65"/>
							<stop  offset="0.38" style="stop-color:#9070CA;stop-opacity:0.51"/>
							<stop  offset="0.68" style="stop-color:#C2B0E2;stop-opacity:0.28"/>
							<stop  offset="1" style="stop-color:#FFFFFF;stop-opacity:0"/>
						</radialGradient>
						
							<ellipse style="opacity:0.5;fill:url(#SVGID_00000063612759745035453630000006031426566310386867_);enable-background:new    ;" cx="168.4" cy="175.4" rx="26.6" ry="33.1"/>
					</g>
				</g>
			</g>
		</g>
	</g>
	<g id="ad">
		<g>
			<g class="st11">
				<path class="st12" d="M129.1,80.6c2.3-2.4,2.9-6.1,1.1-9.1c-2.1-3.7-6.8-4.9-10.5-2.8s-4.9,6.8-2.8,10.5c1.7,3,5.2,4.4,8.5,3.6
					c1.2,2,2.4,4.1,3.5,6.1c1.2-0.7,2.5-1.4,3.7-2.2C131.5,84.6,130.3,82.6,129.1,80.6z M125.1,77.9c-1.5,0.9-3.4,0.3-4.2-1.2
					s-0.3-3.4,1.1-4.3c1.5-0.9,3.4-0.3,4.2,1.2S126.6,77.1,125.1,77.9z"/>
				<path class="st12" d="M84.9,153.4c-0.9-3.2-3.9-5.6-7.4-5.6c-4.3,0-7.8,3.4-7.8,7.7c0,4.3,3.4,7.8,7.7,7.8
					c3.5,0,6.5-2.3,7.5-5.5c2.4,0,4.7,0,7.1,0c0-1.4,0-2.9,0-4.3C89.6,153.5,87.3,153.4,84.9,153.4L84.9,153.4z M77.4,158.7
					c-1.7,0-3.1-1.4-3.1-3.1c0-1.7,1.4-3.1,3.1-3.1c1.7,0,3.1,1.4,3.1,3.1C80.5,157.3,79.1,158.7,77.4,158.7z"/>
				<path class="st12" d="M125.7,228.2c-3.3-0.7-6.8,0.7-8.5,3.8c-2.1,3.7-0.7,8.5,3,10.5c3.7,2.1,8.5,0.7,10.5-3
					c1.7-3.1,1.1-6.8-1.3-9.2c1.1-2.1,2.3-4.2,3.4-6.2c-1.3-0.7-2.5-1.4-3.8-2.1C127.9,224.1,126.8,226.2,125.7,228.2L125.7,228.2z
					 M126.7,237.3c-0.8,1.5-2.7,2-4.2,1.2c-1.5-0.8-2-2.7-1.2-4.2s2.7-2,4.2-1.2C126.9,233.9,127.5,235.8,126.7,237.3z"/>
				<path class="st12" d="M211,230.2c-2.3,2.4-2.9,6.2-1.1,9.2c2.1,3.7,6.9,5,10.6,2.8c3.7-2.1,5-6.9,2.8-10.6
					c-1.8-3-5.3-4.4-8.6-3.6c-1.2-2-2.4-4.1-3.6-6.1c-1.2,0.7-2.5,1.5-3.7,2.2C208.6,226.2,209.8,228.2,211,230.2L211,230.2z
					 M219.3,234c0.9,1.5,0.4,3.4-1.1,4.2s-3.4,0.4-4.2-1.1s-0.4-3.4,1.1-4.2S218.5,232.6,219.3,234z"/>
				<path class="st12" d="M262.8,147.5c-3.5,0-6.5,2.3-7.5,5.6l-6.7,0.1c0,1.4,0.1,2.8,0.1,4.2c2.2,0,4.4,0,6.6,0
					c0.9,3.2,3.9,5.6,7.4,5.6c4.3,0,7.8-3.4,7.8-7.7S267,147.5,262.8,147.5L262.8,147.5z M265.8,155.3c0,1.7-1.4,3.1-3.1,3.1
					c-1.7,0-3.1-1.4-3.1-3.1c0-1.7,1.4-3.1,3.1-3.1C264.4,152.2,265.8,153.6,265.8,155.3z"/>
				<path class="st12" d="M220.1,68.4c-3.6-2.1-8.3-0.9-10.4,2.8c-1.7,3-1.2,6.7,1.1,9l-3.6,6.3l3.7,2.1l3.6-6.3
					c3.2,0.8,6.7-0.6,8.4-3.6C225,75.2,223.7,70.5,220.1,68.4L220.1,68.4z M219.1,76.7c-0.9,1.6-3,2.1-4.6,1.2
					c-1.6-0.9-2.1-3-1.2-4.5s3-2.1,4.6-1.2C219.5,73.1,220.1,75.1,219.1,76.7z"/>
			</g>
			<g>
				<path class="st12" d="M177.6,62.8c0-4.2-3.5-7.7-7.7-7.7s-7.7,3.5-7.7,7.7c0,3.5,2.4,6.4,5.5,7.3l0,7.3l4.3,0l0-7.3
					C175.2,69.2,177.6,66.3,177.6,62.8L177.6,62.8z M169.9,66.2c-1.9,0-3.4-1.5-3.4-3.3s1.5-3.4,3.4-3.4s3.4,1.5,3.4,3.3
					C173.2,64.6,171.7,66.1,169.9,66.2z"/>
				<path class="st12" d="M97.3,111.2c0.8-3.2-0.5-6.7-3.5-8.5c-3.6-2.2-8.4-1-10.5,2.6c-2.2,3.6-1,8.4,2.6,10.5
					c3,1.8,6.7,1.3,9.2-0.9c2,1.2,4,2.4,6.1,3.6c0.7-1.2,1.4-2.5,2.2-3.7C101.3,113.6,99.3,112.4,97.3,111.2L97.3,111.2z
					 M92.4,110.8c-0.9,1.5-2.8,1.9-4.2,1.1s-1.9-2.8-1.1-4.3c0.9-1.5,2.8-1.9,4.2-1.1S93.3,109.3,92.4,110.8z"/>
				<path class="st12" d="M95.2,196.2c-2.4-2.3-6.2-2.9-9.2-1.1c-3.7,2.1-5,6.9-2.9,10.6c2.1,3.7,6.9,5,10.6,2.9
					c3.1-1.8,4.5-5.3,3.7-8.5c2.1-1.2,4.1-2.4,6.1-3.6c-0.7-1.2-1.5-2.5-2.2-3.7C99.3,193.9,97.3,195.1,95.2,196.2z M91.4,204.6
					c-1.5,0.9-3.4,0.3-4.2-1.1c-0.8-1.5-0.3-3.4,1.2-4.2c1.5-0.9,3.4-0.3,4.2,1.1C93.4,201.8,92.9,203.7,91.4,204.6z"/>
				<path class="st12" d="M168,240.6c-3.2,1-5.6,3.9-5.5,7.5c0,4.3,3.5,7.7,7.8,7.7c4.3,0,7.7-3.5,7.7-7.8c0-3.5-2.4-6.5-5.6-7.4
					c0-2.4-0.1-4.7-0.1-7.1c-1.4,0-2.9,0.1-4.3,0.1C168,235.9,168,238.2,168,240.6L168,240.6z M173.4,248c0,1.7-1.4,3.1-3.1,3.1
					c-1.7,0-3.1-1.4-3.1-3.1s1.4-3.1,3.1-3.1C172,244.9,173.4,246.3,173.4,248z"/>
				<path class="st12" d="M254.4,195c-3-1.8-6.8-1.3-9.2,1l-5.8-3.3c-0.7,1.2-1.4,2.5-2.1,3.7c1.9,1.1,3.8,2.2,5.6,3.4
					c-0.8,3.2,0.5,6.8,3.5,8.6c3.7,2.2,8.4,1,10.6-2.7C259.2,201.9,258,197.2,254.4,195L254.4,195z M253,203.2
					c-0.9,1.5-2.8,1.9-4.2,1.1c-1.5-0.9-1.9-2.8-1.1-4.2c0.9-1.5,2.8-1.9,4.3-1.1C253.4,199.8,253.9,201.7,253,203.2L253,203.2z"/>
				<path class="st12" d="M250.2,101.2c-4.3,0-7.7,3.5-7.7,7.7c0,0.6,0.1,1.2,0.2,1.8l-5.8,3.4l2.2,3.8l5.8-3.4
					c1.4,1.3,3.3,2.1,5.3,2.1c4.3,0,7.7-3.5,7.7-7.7S254.5,101.2,250.2,101.2L250.2,101.2z M250.2,111.9c-1.7,0-3-1.3-3-3s1.4-3,3-3
					s3,1.3,3,3S251.8,111.9,250.2,111.9z"/>
			</g>
		</g>
	</g>
</g>
</svg>
